<svg width="24" height="24" viewBox="0 0 24 24" fill="none" xmlns="http://www.w3.org/2000/svg">
<path d="M11.7056 1.06574C12.2287 0.793 12.8672 1.42574 12.5888 1.94836C12.4274 2.37432 11.8154 2.4876 11.5028 2.16293C11.172 1.85121 11.28 1.23527 11.7056 1.06574ZM6.07929 1.67208C6.39705 1.54123 6.79929 1.8324 6.76685 2.17877C6.80054 2.5547 6.34089 2.83157 6.01699 2.65282C5.58787 2.48664 5.63693 1.78996 6.07929 1.67217V1.67208ZM17.6024 2.66338C17.1058 2.60337 17.0273 1.8227 17.5054 1.66497C17.8762 1.48411 18.2164 1.82328 18.2706 2.17473C18.1928 2.47483 17.9415 2.74968 17.6024 2.6629V2.66338ZM7.35926 4.06632C7.89052 3.73032 8.64854 4.23068 8.56684 4.84777C8.53929 5.47081 7.71168 5.83177 7.24483 5.41052C6.79363 5.0797 6.86179 4.32063 7.35926 4.06652V4.06632ZM15.4689 4.42306C15.7062 3.81288 16.6665 3.79368 16.9363 4.38889C17.2029 4.85161 16.875 5.42463 16.4 5.58188C15.7707 5.69939 15.173 5.01913 15.4692 4.42354L15.4689 4.42306ZM11.028 5.54703C11.0228 5.02201 11.501 4.63081 12 4.59509C12.3309 4.66143 12.6917 4.80246 12.8337 5.13644C13.0982 5.59724 12.8633 6.23142 12.3852 6.44291C12.1666 6.56541 11.9081 6.51971 11.67 6.50521C11.3061 6.32656 10.9996 5.97616 11.0281 5.54713L11.028 5.54703ZM2.66103 6.31197C3.14631 6.0136 3.80102 6.55811 3.61728 7.08525C3.5161 7.54125 2.90314 7.72672 2.55274 7.43565C2.17834 7.16291 2.23795 6.50704 2.66103 6.31197ZM20.628 6.31101C21.0397 5.99132 21.7191 6.35805 21.6701 6.87741C21.6977 7.35146 21.1103 7.70887 20.7015 7.46483C20.2514 7.26256 20.2055 6.57001 20.628 6.31053V6.31101ZM13.3809 7.25431C14.0603 7.01027 14.8674 7.30231 15.2547 7.90807C15.7655 8.64861 15.4937 9.77633 14.7009 10.2012C13.8796 10.7038 12.6802 10.278 12.3768 9.36055C12.0323 8.53937 12.5341 7.51168 13.3809 7.25431ZM9.39455 7.33562C10.1476 6.98042 11.161 7.27802 11.5247 8.04861C11.9528 8.79838 11.6218 9.84238 10.8565 10.2295C10.0904 10.6646 9.0094 10.3351 8.63894 9.52971C8.22278 8.75134 8.592 7.69408 9.39455 7.33562ZM5.40297 8.70026C5.46057 8.21508 5.91792 7.89943 6.37968 7.86669C6.87724 7.92669 7.27468 8.31309 7.32873 8.8171C7.29609 9.31553 6.91084 9.80283 6.38265 9.79976C5.80147 9.84977 5.292 9.27175 5.40297 8.70065V8.70026ZM17.1927 7.97258C17.7894 7.62525 18.6178 8.13088 18.5913 8.81633C18.6322 9.54257 17.7153 10.0547 17.1212 9.6284C16.504 9.27367 16.5521 8.27479 17.1927 7.97268V7.97258ZM7.77225 10.5319C8.47008 10.3399 9.26793 10.6688 9.61017 11.3101C9.98457 11.9557 9.83183 12.8526 9.24959 13.3261C8.50281 14.0207 7.1256 13.7418 6.72816 12.7939C6.27149 11.925 6.82617 10.7605 7.77225 10.5318V10.5319ZM15.3333 10.5282C16.0116 10.3342 16.8085 10.5954 17.1732 11.2136C17.6554 11.9205 17.4252 12.9747 16.7074 13.4303C15.9555 13.9594 14.7908 13.6815 14.377 12.8543C13.8754 11.9985 14.3802 10.7892 15.3333 10.5282ZM3.28406 11.3346C3.88685 11.1066 4.55501 11.7718 4.31078 12.3694C4.1617 12.9137 3.39446 13.1153 2.99808 12.7137C2.53431 12.3368 2.70605 11.4981 3.28416 11.3346H3.28406ZM19.6224 12.2019C19.605 11.7027 19.9704 11.2601 20.4825 11.2323C20.8953 11.2976 21.2967 11.6307 21.2641 12.0801C21.3019 12.6736 20.5867 13.077 20.081 12.7981C19.844 12.6777 19.7224 12.4346 19.6224 12.2016V12.2019ZM0.320452 11.6273C0.683043 11.469 1.13165 11.7833 1.0489 12.186C1.0297 12.642 0.35626 12.8173 0.108964 12.4363C-0.109628 12.1722 0.0211241 11.7642 0.320452 11.6273ZM23.1856 11.6177C23.441 11.4359 23.8507 11.5665 23.9518 11.8649C24.1234 12.1907 23.8087 12.6371 23.442 12.582C22.9272 12.629 22.7604 11.8444 23.1856 11.6177ZM9.74207 13.8065C10.6963 13.5584 11.7221 14.3537 11.7281 15.3367C11.7904 16.3295 10.7801 17.21 9.80332 16.9807C9.04828 16.8591 8.45587 16.1318 8.48035 15.3688C8.47833 14.6392 9.02899 13.9609 9.74217 13.8065H9.74207ZM13.5212 13.8045C14.4897 13.5338 15.546 14.3437 15.5307 15.3491C15.5818 16.3236 14.603 17.1744 13.6467 16.9811C12.7467 16.8647 12.0826 15.8759 12.3339 15.0025C12.4607 14.4205 12.9469 13.9473 13.5212 13.8045ZM6.23481 14.4093C6.90499 14.295 7.53331 15.0429 7.26153 15.679C7.06329 16.3572 6.07641 16.5411 5.64009 15.9872C5.12832 15.4552 5.5104 14.4827 6.23481 14.4093ZM17.3173 14.4401C17.9149 14.1899 18.6485 14.7067 18.6025 15.3554C18.6265 16.0694 17.7208 16.5617 17.1365 16.145C16.4741 15.7706 16.595 14.6698 17.3173 14.4401ZM20.4151 17.5472C20.1811 17.111 20.6061 16.5328 21.0904 16.6136C21.3315 16.6095 21.5001 16.7994 21.6544 16.9592C21.6861 17.2177 21.7393 17.5256 21.5247 17.7253C21.2334 18.094 20.5734 17.9888 20.4151 17.5476V17.5472ZM2.6592 16.7351C3.11184 16.4338 3.7632 16.8831 3.66144 17.4124C3.6073 17.8804 3.01824 18.1479 2.62944 17.8828C2.21271 17.6417 2.22807 16.9553 2.6592 16.7356V16.7351ZM11.6016 17.7153C12.1942 17.4538 12.949 17.9697 12.8929 18.6224C12.9369 19.3435 12.0031 19.843 11.4241 19.4096C10.7809 19.0377 10.8878 17.9437 11.602 17.715L11.6016 17.7153ZM7.4592 18.681C7.96387 18.4155 8.64124 18.8741 8.59526 19.4394C8.61062 19.9032 8.15798 20.2985 7.70025 20.23C7.32115 20.2218 7.07395 19.882 6.95241 19.5589C6.95865 19.2066 7.10361 18.8144 7.4592 18.6815V18.681ZM15.8489 18.6897C16.3679 18.3689 17.1056 18.8296 17.0565 19.4337C17.0698 20.065 16.2362 20.4694 15.7529 20.0547C15.285 19.7297 15.3421 18.9482 15.8489 18.6897ZM17.3081 22.2965C17.0777 21.9472 17.349 21.5263 17.7239 21.4467C18.0253 21.5081 18.344 21.7347 18.2807 22.0842C18.2367 22.5571 17.545 22.7022 17.3081 22.2965ZM5.72678 21.9931C5.81875 21.7163 6.04147 21.4411 6.36739 21.5131C6.84249 21.5468 6.98352 22.2629 6.56765 22.4836C6.19373 22.7357 5.7599 22.3905 5.72678 21.9931ZM11.314 22.3108C11.405 21.9013 11.9351 21.7021 12.2845 21.9196C12.5149 22.0188 12.5828 22.2771 12.6421 22.4967C12.6105 22.611 12.5821 22.7255 12.5543 22.8399C12.4113 23.0094 12.2279 23.179 11.9893 23.1729C11.5469 23.2247 11.1478 22.7246 11.314 22.3108Z" fill="#3CC8C8"/>
</svg>
