<svg width="24" height="24" viewBox="0 0 24 24" fill="none" xmlns="http://www.w3.org/2000/svg">
<g clip-path="url(#clip0_1:9353)">
<path d="M0.0166942 23.9999C1.97868e-05 23.6664 -0.00553834 23.3329 0.011136 22.9994C0.122299 22.966 0.233461 22.9438 0.350182 22.9271C0.68367 22.8716 1.01716 22.7882 1.33953 22.6937C1.42846 22.6659 1.51739 22.6326 1.60632 22.5992C2.0343 22.4325 2.41225 22.1546 2.70127 21.7988C2.90136 21.5487 3.07367 21.2764 3.22373 20.9929C3.43494 20.6038 3.61836 20.1981 3.78511 19.7868C4.11859 18.9531 4.45208 18.1249 4.78001 17.2912C5.91387 14.4232 7.04773 11.5552 8.18159 8.68723C9.2543 5.95819 10.3104 3.22915 11.3442 0.483438C11.3664 0.427857 11.3886 0.372276 11.4109 0.316695C11.7944 0.21109 12.1668 0.0999281 12.5558 -0.00567627C12.5781 0.049905 12.6003 0.0999281 12.617 0.149951C13.0561 1.37274 13.4952 2.59553 13.9287 3.82387C15.4238 7.99802 16.919 12.1666 18.453 16.3241C18.8754 17.4579 19.2978 18.5974 19.7258 19.7312C19.8926 20.1925 20.0927 20.6483 20.3205 21.0818C20.4206 21.2708 20.5262 21.4487 20.6429 21.6265C20.9986 22.1823 21.5489 22.577 22.1881 22.7437C22.5327 22.8326 22.8773 22.9049 23.233 22.9494L23.4831 22.9883C23.5165 23.0994 23.4998 23.205 23.4998 23.3106C23.4998 23.4163 23.4998 23.5385 23.4998 23.6497C23.5053 23.7609 23.4998 23.8665 23.4942 23.9776C23.4609 23.9832 23.4331 23.9887 23.3997 23.9943C23.3608 23.9943 23.3219 23.9943 23.283 23.9943H14.6068C14.5957 23.9776 14.5901 23.9554 14.5846 23.9332C14.5846 23.633 14.5846 23.3329 14.5846 23.0327C14.5846 23.0216 14.5901 23.005 14.5957 22.9938C14.6679 22.9716 14.7402 22.9605 14.818 22.9494C15.1793 22.8993 15.535 22.8326 15.8907 22.7382C16.0297 22.6993 16.1742 22.6492 16.3076 22.5936C16.3743 22.5659 16.441 22.5325 16.5077 22.4936C16.8578 22.2991 16.9968 21.9934 16.9634 21.6043C16.9468 21.4264 16.919 21.2541 16.8689 21.0818C16.7967 20.8151 16.7022 20.5538 16.6133 20.2981C14.7902 15.2125 12.9894 10.1212 11.2052 5.01887C11.1885 4.96328 11.1774 4.90215 11.1218 4.85212C11.1052 4.86324 11.0774 4.87436 11.0663 4.88547C11.0496 4.91326 11.0385 4.94105 11.0329 4.96884C10.1603 7.47556 9.23207 9.9656 8.30942 12.4501C7.62577 14.2898 6.94212 16.1351 6.3085 17.9915C6.05282 18.7363 5.80826 19.4867 5.56927 20.237C5.47478 20.526 5.40808 20.8206 5.36361 21.1152C5.33027 21.3153 5.32471 21.5154 5.34694 21.721C5.37473 21.9823 5.51368 22.2213 5.73045 22.3769C5.8694 22.4769 6.02503 22.5547 6.19178 22.6103C6.45301 22.7048 6.7198 22.7715 6.99215 22.816C7.29229 22.8716 7.59242 22.916 7.89812 22.9605C7.92035 22.966 7.93703 22.966 7.96482 22.9716C7.97038 22.9938 7.97594 23.0161 7.98149 23.0383C7.98149 23.3273 7.98149 23.6219 7.98149 23.9109C7.98149 23.9276 7.97593 23.9443 7.97038 23.9609C7.94259 23.9665 7.9148 23.9721 7.88701 23.9721C7.8481 23.9721 7.80919 23.9721 7.77029 23.9721L0.0166942 23.9999Z" fill="black"/>
</g>
<defs>
<clipPath id="clip0_1:9353">
<rect width="24" height="24" fill="white"/>
</clipPath>
</defs>
</svg>
