<svg width="24" height="24" viewBox="0 0 24 24" fill="none" xmlns="http://www.w3.org/2000/svg">
<path d="M12.036 0.130042V0.141865C12.0478 0.200978 12.0478 0.271914 12.0478 0.34285V8.86699C12.036 8.91428 12.0005 8.9261 11.965 8.94975C11.7168 9.06797 11.4803 9.17438 11.232 9.28078C10.8892 9.43448 10.5345 9.59999 10.1916 9.75369L8.95026 10.3212C8.6074 10.4749 8.26455 10.6286 7.93351 10.7823C7.53154 10.9714 7.11775 11.1488 6.71578 11.3379C6.37292 11.4916 6.03006 11.6571 5.67538 11.8108C5.39164 11.9409 5.1079 12.0591 4.83598 12.1892C4.81233 12.201 4.78868 12.2128 4.76504 12.2128C4.75322 12.2128 4.75322 12.2128 4.74139 12.201L5.06061 11.669C5.67538 10.6522 6.27834 9.64728 6.89312 8.63054C7.54336 7.54285 8.20543 6.45517 8.85568 5.36748C9.45864 4.36255 10.0734 3.35763 10.6764 2.3527C11.1138 1.6197 11.5631 0.886692 12.0005 0.153687C12.0123 0.130042 12.0242 0.118219 12.0242 0.094574H12.036C12.0242 0.106397 12.036 0.118219 12.036 0.130042Z" fill="#8A92B2"/>
<path d="M19.2946 12.201L19.3064 12.2128L17.5685 13.2414L12.1064 16.469C12.0827 16.4808 12.0591 16.4926 12.0473 16.5044C12.0118 16.5044 12.0118 16.469 12.0118 16.4571V16.3507V9.04432C12.0118 9.00885 12.0118 8.96156 12.0236 8.9261C12.0355 8.87881 12.0709 8.89063 12.1064 8.90245C12.2601 8.97339 12.4256 9.04432 12.5793 9.11526C13.0404 9.32807 13.5015 9.54087 13.9625 9.74186C14.3645 9.9192 14.7547 10.1084 15.1566 10.2857C15.5586 10.463 15.9606 10.6522 16.3625 10.8295C16.7054 10.9832 17.0601 11.1488 17.4029 11.3025C17.7458 11.4561 18.1005 11.6217 18.4433 11.7754C18.7153 11.8936 18.9872 12.0236 19.2591 12.1419C19.2591 12.1773 19.2709 12.1891 19.2946 12.201Z" fill="#454A75"/>
<path d="M12.0355 23.8463C12.0355 23.8581 12.0236 23.8699 12.0236 23.8818H12.0118C12.0118 23.8581 11.9882 23.8463 11.9763 23.8226C11.2433 22.7941 10.5103 21.7537 9.77733 20.7251C9.0325 19.6729 8.27585 18.6089 7.53102 17.5566C6.80984 16.5399 6.07684 15.5113 5.35565 14.4946C5.16649 14.2226 4.97733 13.9625 4.78817 13.6906C4.77634 13.667 4.76452 13.6552 4.74088 13.6197C4.77634 13.6197 4.79999 13.6433 4.81181 13.6552C5.84038 14.2581 6.85713 14.8611 7.8857 15.464C9.06797 16.1616 10.2384 16.8591 11.4207 17.5566L12.0236 17.9113C12.0473 17.935 12.0473 17.9586 12.0473 17.9823V23.6808C12.0473 23.7399 12.0473 23.799 12.0355 23.8463Z" fill="#8A92B2"/>
<path d="M4.72906 12.2246V12.2128C5.10739 12.0473 5.47389 11.8699 5.85222 11.7044C6.33695 11.4798 6.82168 11.267 7.3064 11.0423C7.67291 10.8768 8.05123 10.6995 8.41773 10.534C8.96158 10.2857 9.4936 10.0492 10.0374 9.80097C10.4039 9.63545 10.7704 9.46994 11.1488 9.2926C11.4089 9.17437 11.6808 9.05614 11.9409 8.93792C11.9645 8.92609 12 8.91427 12.0118 8.89062C12.0236 8.89062 12.0236 8.90245 12.0118 8.91427V16.4217C12.0118 16.4571 12 16.4926 12.0236 16.5162C12 16.5517 11.9764 16.5162 11.9645 16.5044C11.8581 16.4453 11.7517 16.3862 11.6453 16.3153C9.36355 14.9675 7.06995 13.6079 4.78818 12.2601C4.77636 12.2483 4.75271 12.2364 4.72906 12.2246Z" fill="#62688F"/>
<path d="M19.2709 13.6197H19.2828C19.2828 13.6433 19.2591 13.667 19.2473 13.6906C17.0719 16.7527 14.8966 19.8266 12.7212 22.8887C12.4966 23.2079 12.2601 23.5271 12.0355 23.8463C12.0237 23.8345 12.0237 23.8226 12.0237 23.8108V23.7399V18.0059V17.8995C12.5202 17.6039 13.0049 17.3202 13.5015 17.0246C15.4168 15.8896 17.332 14.7665 19.2355 13.6315C19.2473 13.6433 19.2591 13.6315 19.2709 13.6197Z" fill="#62688F"/>
<path d="M12.0236 8.91429V8.89065V8.81971V0.236458C12.0236 0.20099 12.0118 0.177344 12.0355 0.141876C14.4355 4.12611 16.8355 8.09853 19.2236 12.0828C19.2473 12.1182 19.2828 12.1655 19.2946 12.2128C19.1291 12.1537 18.9754 12.0709 18.8217 12C18.6325 11.9172 18.4315 11.8227 18.2424 11.7399C18.1241 11.6808 17.9941 11.6335 17.8759 11.5744C17.6749 11.4798 17.4739 11.397 17.2729 11.3025C17.1547 11.2552 17.0365 11.1961 16.9182 11.137L16.1379 10.7823C16.0079 10.7232 15.8778 10.664 15.736 10.6049L15.1685 10.3567C15.0502 10.3094 14.932 10.2503 14.8138 10.1911L14.0335 9.83646C13.9034 9.77734 13.7734 9.71823 13.6315 9.65912L13.064 9.41084C12.934 9.35173 12.8158 9.29262 12.6857 9.2335C12.4611 9.1271 12.2365 9.02069 12 8.92611C12.0355 8.91429 12.0236 8.91429 12.0236 8.91429Z" fill="#62688F"/>
</svg>
