<svg width="24" height="24" viewBox="0 0 24 24" fill="none" xmlns="http://www.w3.org/2000/svg">
<path d="M12 24C5.4 24 0 18.6 0 12C0 5.4 5.4 0 12 0C18.6 0 24 5.4 24 12C24 18.6 18.6 24 12 24Z" fill="#002868"/>
<path d="M18.048 19.2H5.952C5.3184 19.2 4.8 18.6816 4.8 18.048V5.952C4.8 5.3184 5.3184 4.8 5.952 4.8H18.048C18.6816 4.8 19.2 5.3184 19.2 5.952V18.048C19.2 18.6816 18.6816 19.2 18.048 19.2Z" fill="white"/>
<path d="M7.60992 17.7504C7.572 17.7504 7.54128 17.7158 7.54128 17.6779V15.743C7.54128 15.7051 7.51056 15.6706 7.47264 15.6706H6.7896C6.7512 15.6706 6.71712 15.6398 6.71712 15.6019V15.228C6.71712 15.1901 6.75168 15.1555 6.7896 15.1555H8.892C8.92992 15.1555 8.96448 15.1896 8.96448 15.228V15.6019C8.96448 15.6398 8.92992 15.6706 8.892 15.6706H8.2128C8.17488 15.6706 8.14032 15.7046 8.14032 15.743V17.6779C8.14032 17.7158 8.1096 17.7504 8.07168 17.7504H7.60992Z" fill="#002868"/>
<path d="M11.0631 15.228C11.0631 15.1901 11.0938 15.1555 11.1317 15.1555H11.5896C11.6275 15.1555 11.6621 15.1896 11.6621 15.228V16.5485C11.6621 17.3309 11.2195 17.785 10.5173 17.785C9.81889 17.785 9.38017 17.3309 9.38017 16.5485V15.228C9.38017 15.1901 9.41089 15.1555 9.44881 15.1555H9.90673C9.94465 15.1555 9.97921 15.1896 9.97921 15.228V16.5672C9.97921 16.9526 10.1775 17.2272 10.5211 17.2272C10.8648 17.2272 11.0631 16.9526 11.0631 16.5672V15.228Z" fill="#002868"/>
<path d="M13.765 16.0027C13.704 16.0027 13.6848 15.9797 13.6618 15.9341C13.5816 15.7469 13.4059 15.6288 13.139 15.6288C12.8985 15.6288 12.6965 15.7128 12.6965 15.8731C12.6965 16.0488 12.8837 16.1213 13.2955 16.1707C13.9214 16.2432 14.28 16.4342 14.28 16.9301C14.28 17.4874 13.7914 17.7811 13.1659 17.7811C12.624 17.7811 12.1584 17.5176 12.0859 16.9646C12.0782 16.9114 12.1051 16.8922 12.1584 16.8922H12.5784C12.6317 16.8922 12.6624 16.9152 12.6777 16.957C12.7349 17.1403 12.9297 17.2814 13.212 17.2814C13.4602 17.2814 13.6776 17.1898 13.6776 16.9954C13.6776 16.7626 13.4486 16.7208 12.9907 16.6632C12.4641 16.5946 12.0979 16.4419 12.0979 15.9571C12.0979 15.4723 12.5141 15.1253 13.1664 15.1253C13.7539 15.1253 14.1624 15.4421 14.2464 15.9154C14.2579 15.9686 14.2426 16.0032 14.1854 16.0032H13.765V16.0027Z" fill="#002868"/>
<path d="M14.7989 17.7504C14.761 17.7504 14.7302 17.7158 14.7302 17.6779V15.228C14.7302 15.1901 14.761 15.1555 14.7989 15.1555H15.8366C16.6075 15.1555 17.2066 15.6859 17.2066 16.4606C17.2066 17.2238 16.6152 17.7504 15.8366 17.7504H14.7989ZM15.8366 17.2349C16.2528 17.2349 16.5768 16.9066 16.5768 16.4525C16.5768 15.9984 16.2523 15.6701 15.8328 15.6701H15.4018C15.3638 15.6701 15.3331 15.7042 15.3331 15.7426V17.1658C15.3331 17.2037 15.3638 17.2344 15.4018 17.2344H15.8366V17.2349Z" fill="#002868"/>
<path d="M18.816 13.728H5.184C5.0784 13.728 4.992 13.6416 4.992 13.536V5.952C4.992 5.424 5.424 4.992 5.952 4.992H18.048C18.576 4.992 19.008 5.424 19.008 5.952V13.536C19.008 13.6416 18.9216 13.728 18.816 13.728Z" fill="#002868"/>
<path d="M12.707 12.1709H11.459C11.3798 12.1709 11.315 12.1061 11.315 12.0269V6.74688C11.315 6.66768 11.3798 6.60288 11.459 6.60288H12.707C12.7862 6.60288 12.851 6.66768 12.851 6.74688V12.0269C12.851 12.1061 12.7862 12.1709 12.707 12.1709Z" fill="white"/>
<path d="M14.832 8.13888H9.168C9.0888 8.13888 9.024 8.07408 9.024 7.99488V6.74688C9.024 6.66768 9.0888 6.60288 9.168 6.60288H14.832C14.9112 6.60288 14.976 6.66768 14.976 6.74688V7.99488C14.976 8.07408 14.9112 8.13888 14.832 8.13888Z" fill="white"/>
</svg>
