<svg width="24" height="24" viewBox="0 0 24 24" fill="none" xmlns="http://www.w3.org/2000/svg">
<g clip-path="url(#clip0_1693_2438)">
<circle cx="12" cy="12" r="12" fill="#F7951B"/>
<path d="M17.2226 10.6281C17.441 9.15706 16.3291 8.3663 14.8087 7.83878L15.3019 5.84609L14.0976 5.54383L13.6175 7.48406C13.3009 7.40453 12.9758 7.32959 12.6526 7.25529L13.1363 5.30225L11.9327 5L11.4392 6.99205C11.1773 6.93197 10.9199 6.87258 10.6703 6.81002L10.6717 6.80375L9.01097 6.38603L8.69061 7.68161C8.69061 7.68161 9.58408 7.8879 9.56525 7.9006C10.0529 8.0232 10.1411 8.34836 10.1265 8.60609L9.56461 10.8762C9.59819 10.8848 9.64174 10.8973 9.68981 10.9167C9.64963 10.9067 9.60688 10.8957 9.56251 10.885L8.77499 14.0652C8.7154 14.2144 8.56413 14.4384 8.22318 14.3533C8.23525 14.3709 7.3479 14.1333 7.3479 14.1333L6.75 15.5218L8.31716 15.9153C8.6087 15.989 8.8944 16.066 9.17575 16.1385L8.67742 18.154L9.88029 18.4563L10.3738 16.4621C10.7024 16.552 11.0213 16.6349 11.3335 16.713L10.8417 18.6977L12.046 19L12.5443 16.9882C14.5978 17.3797 16.1419 17.2219 16.7918 15.351C17.3155 13.8447 16.7658 12.9758 15.6854 12.4092C16.4723 12.2264 17.065 11.7051 17.223 10.6283L17.2226 10.628L17.2226 10.6281ZM14.4711 14.5144C14.0989 16.0207 11.5811 15.2065 10.7647 15.0023L11.426 12.332C12.2423 12.5373 14.8601 12.9435 14.4712 14.5144H14.4711ZM14.8435 10.6063C14.504 11.9764 12.4084 11.2803 11.7286 11.1097L12.3281 8.6879C13.008 8.85858 15.1972 9.17716 14.8436 10.6063H14.8435Z" fill="white"/>
</g>
<defs>
<clipPath id="clip0_1693_2438">
<rect width="24" height="24" fill="white"/>
</clipPath>
</defs>
</svg>
