<svg width="48" height="48" viewBox="0 0 48 48" fill="none" xmlns="http://www.w3.org/2000/svg">
<path d="M21.9594 0.40589C23.266 -0.135298 24.734 -0.135296 26.0406 0.405892L39.2407 5.87356C40.5472 6.41475 41.5853 7.45279 42.1264 8.75933L47.5941 21.9594C48.1353 23.266 48.1353 24.734 47.5941 26.0406L42.1264 39.2407C41.5853 40.5472 40.5472 41.5853 39.2407 42.1264L26.0406 47.5941C24.734 48.1353 23.266 48.1353 21.9594 47.5941L8.75933 42.1264C7.45279 41.5853 6.41475 40.5472 5.87356 39.2407L0.40589 26.0405C-0.135298 24.734 -0.135296 23.266 0.405891 21.9594L5.87356 8.75933C6.41475 7.45279 7.45279 6.41475 8.75933 5.87356L21.9594 0.40589Z" fill="url(#paint0_linear_775_14312)"/>
<path d="M24.0925 10C27.3634 13.1153 29.1068 17.1123 29.3845 21.2122C27.4097 22.2261 25.5891 23.5193 23.9999 25.0769C22.4108 23.5046 20.5902 22.2114 18.6153 21.2122C18.9702 17.1417 20.7907 13.1447 24.0925 10Z" fill="white"/>
<path d="M24.9953 37.9183C25.4285 33.9841 24.1369 29.8959 21.1204 26.8795C18.1039 23.863 14.0158 22.5714 10.0816 23.0045C9.64842 26.9388 10.9401 31.0269 13.9565 34.0434C16.973 37.0598 21.0611 38.3515 24.9953 37.9183Z" fill="url(#paint1_linear_775_14312)"/>
<path d="M23.0047 37.9183C22.5715 33.9841 23.8631 29.8959 26.8796 26.8795C29.8961 23.863 33.9842 22.5714 37.9184 23.0045C38.3516 26.9388 37.0599 31.0269 34.0435 34.0434C31.027 37.0598 26.9389 38.3515 23.0047 37.9183Z" fill="url(#paint2_linear_775_14312)"/>
<defs>
<linearGradient id="paint0_linear_775_14312" x1="24" y1="-0.439334" x2="24" y2="48.4393" gradientUnits="userSpaceOnUse">
<stop stop-color="#060A0A"/>
<stop offset="1" stop-color="#2D3233"/>
</linearGradient>
<linearGradient id="paint1_linear_775_14312" x1="10" y1="30.4614" x2="24.8713" y2="30.4614" gradientUnits="userSpaceOnUse">
<stop stop-color="#21E5A4"/>
<stop offset="1" stop-color="#06C090"/>
</linearGradient>
<linearGradient id="paint2_linear_775_14312" x1="42.8462" y1="22.923" x2="25.3217" y2="22.923" gradientUnits="userSpaceOnUse">
<stop stop-color="#FFD700"/>
<stop offset="1" stop-color="#5DFA95"/>
</linearGradient>
</defs>
</svg>
