<svg width="48" height="48" viewBox="0 0 48 48" fill="none" xmlns="http://www.w3.org/2000/svg">
<circle cx="24" cy="24" r="24" fill="#00BC9A"/>
<path fill-rule="evenodd" clip-rule="evenodd" d="M16.0235 32.9655C13.5549 30.7676 12 27.5654 12 24C12 17.4647 17.2242 12.1496 23.7243 12.0031V12.0001L23.9451 12.0001C23.9634 12 23.9816 12 23.9999 12C24.0181 12 24.0363 12 24.0546 12.0001L36 12.0001V15.0346H31.9763C34.4449 17.2325 35.9997 20.4347 35.9997 24C35.9997 30.5353 30.7756 35.8503 24.2757 35.9969V36H24.0215C24.0143 36 24.0071 36 23.9999 36C23.9926 36 23.9854 36 23.9782 36H12V32.9655H16.0235ZM24.0196 32.9655H23.9803C19.0379 32.9549 15.0346 28.945 15.0346 24C15.0346 19.0637 19.0239 15.0592 23.9544 15.0346H24.0455C28.976 15.0592 32.9654 19.0637 32.9654 24C32.9654 28.945 28.962 32.9549 24.0196 32.9655Z" fill="white"/>
</svg>
