<svg width="24" height="24" viewBox="0 0 24 24" fill="none" xmlns="http://www.w3.org/2000/svg">
<circle cx="12" cy="12" r="12" fill="#ACDEE7"/>
<path fill-rule="evenodd" clip-rule="evenodd" d="M8.81081 10.7849L8.43278 10.6204L9.22034 6H13.6587L12.6646 7.90765H11.5165L11.9505 7.05008H10.1094L9.61237 9.9448C9.77688 9.98331 9.9484 10.0043 10.1234 10.0043C10.82 10.0043 11.443 9.69278 11.863 9.19575L11.87 9.20275C12.4756 8.5657 13.3332 8.16667 14.2817 8.16667C15.6538 8.16667 16.8334 8.99973 17.341 10.1863H16.1649C15.7553 9.57378 15.0728 9.21675 14.2852 9.21675C13.1616 9.21675 12.5701 9.98681 12.5701 9.98681C11.9646 10.6414 11.093 11.0544 10.1269 11.0544C9.66137 11.0544 9.21684 10.9599 8.81431 10.7849H8.81081ZM14.4147 11.0999C13.4487 11.0999 12.5806 11.5129 11.9716 12.1675C11.9716 12.1675 11.296 12.9375 10.2564 12.9375C9.48636 12.9375 8.80731 12.556 8.39428 11.968H7.20068C7.70822 13.1546 8.88431 13.9876 10.2599 13.9876C11.6355 13.9876 12.6786 12.9585 12.6786 12.9585C13.0951 12.465 13.7217 12.15 14.4182 12.15C14.4847 12.15 14.5547 12.15 14.6213 12.1605L11.548 16.1123V14.6037H10.5084V19L16.3539 11.6354L15.7308 11.3659C15.3283 11.1909 14.8838 11.0964 14.4182 11.0964L14.4147 11.0999Z" fill="#454545"/>
</svg>
