<svg width="24" height="24" viewBox="0 0 24 24" fill="none" xmlns="http://www.w3.org/2000/svg">
<g clip-path="url(#clip0_1693_1105)">
<mask id="mask0_1693_1105" style="mask-type:alpha" maskUnits="userSpaceOnUse" x="0" y="0" width="24" height="24">
<path d="M12 24C18.6274 24 24 18.6274 24 12C24 5.37258 18.6274 0 12 0C5.37258 0 0 5.37258 0 12C0 18.6274 5.37258 24 12 24Z" fill="#8247E5"/>
</mask>
<g mask="url(#mask0_1693_1105)">
<path d="M0 0H24V24H0V0Z" fill="#1565C0"/>
<path d="M11.9332 2.6665L12.4265 4.1865H14.0265L12.7332 5.11984L13.2265 6.63984L11.9332 5.7065L10.6532 6.63984L11.1332 5.13317L9.85317 4.19984H11.4532L11.9198 2.6665H11.9332ZM5.3865 5.3865L6.81317 6.1065L7.93317 4.9865L7.69317 6.55984L9.1065 7.27984L7.53317 7.53317L7.27984 9.1065L6.55984 7.69317L4.9865 7.93317L6.1065 6.81317L5.3865 5.3865ZM2.6665 11.9332L4.1865 11.4398V9.83984L5.11984 11.1332L6.65317 10.6665L5.71984 11.9465L6.65317 13.2398L5.1465 12.7465L4.21317 14.0398V12.4398L2.6665 11.9332ZM5.3865 18.4798L6.1065 17.0665L4.9865 15.9332L6.55984 16.1865L7.27984 14.7598L7.53317 16.3465L9.1065 16.5865L7.69317 17.3198L7.93317 18.8932L6.81317 17.7598L5.3865 18.4798ZM11.9332 21.1998L11.4398 19.6798H9.83984L11.1332 18.7465L10.6665 17.2265L11.9465 18.1598L13.2398 17.2265L12.7465 18.7465L14.0398 19.6798H12.4398L11.9465 21.1998H11.9332ZM18.4798 18.4798L17.0665 17.7598L15.9332 18.8932L16.1865 17.3198L14.7598 16.5865L16.3465 16.3465L16.5865 14.7598L17.3198 16.1865L18.8932 15.9332L17.7598 17.0665L18.4798 18.4798ZM21.1998 11.9332L19.6798 12.4265V14.0265L18.7465 12.7332L17.2265 13.2265L18.1598 11.9332L17.2265 10.6532L18.7465 11.1332L19.6798 9.85317V11.4532L21.1998 11.9332ZM18.4798 5.3865L17.7598 6.81317L18.8932 7.93317L17.3198 7.69317L16.5865 9.1065L16.3465 7.53317L14.7598 7.27984L16.1865 6.55984L15.9332 4.9865L17.0665 6.1065L18.4798 5.3865Z" fill="#FDD835"/>
</g>
</g>
<defs>
<clipPath id="clip0_1693_1105">
<rect width="24" height="24" fill="white"/>
</clipPath>
</defs>
</svg>
