<svg width="24" height="24" viewBox="0 0 24 24" fill="none" xmlns="http://www.w3.org/2000/svg">
  <path
    d="M10.6222 0.360901C11.4748 -0.1203 12.5252 -0.1203 13.3778 0.360901L21.6222 5.014C22.4748 5.4952 23 6.3845 23 7.3469V16.6531C23 17.6155 22.4748 18.5048 21.6222 18.986L13.3778 23.6391C12.5252 24.1203 11.4748 24.1203 10.6222 23.6391L2.37781 18.986C1.52522 18.5048 1 17.6155 1 16.6531V7.3469C1 6.3845 1.52522 5.4952 2.37781 5.014L10.6222 0.360901Z"
    fill="url(#paint0_linear_4329_39368)" />
  <path
    d="M12.1339 7.68567C12.4503 7.68567 12.7068 7.94215 12.7068 8.25861C12.7068 8.57507 12.4503 8.83156 12.1339 8.83156C11.8174 8.83156 11.5609 8.57507 11.5609 8.25861C11.5609 7.94215 11.8174 7.68567 12.1339 7.68567ZM12.1339 9.64058C12.4503 9.64058 12.7068 9.89707 12.7068 10.2135C12.7068 10.53 12.4503 10.7865 12.1339 10.7865C11.8174 10.7865 11.5609 10.53 11.5609 10.2135C11.5609 9.89707 11.8174 9.64058 12.1339 9.64058ZM12.1339 13.2135C12.4503 13.2135 12.7068 13.47 12.7068 13.7865C12.7068 14.1029 12.4503 14.3594 12.1339 14.3594C11.8174 14.3594 11.5609 14.1029 11.5609 13.7865C11.5609 13.47 11.8174 13.2135 12.1339 13.2135ZM12.1339 16.8541C12.4503 16.8541 12.7068 17.1106 12.7068 17.4271C12.7068 17.7435 12.4503 18 12.1339 18C11.8174 18 11.5609 17.7435 11.5609 17.4271C11.5609 17.1106 11.8174 16.8541 12.1339 16.8541ZM12.1096 11.5968C12.3521 11.5968 12.5473 11.7933 12.5473 12.0345C12.5473 12.2756 12.3508 12.4721 12.1096 12.4721C11.8685 12.4721 11.6719 12.2756 11.6719 12.0345C11.6719 11.7933 11.8685 11.5968 12.1096 11.5968ZM12.1096 6C12.3521 6 12.5473 6.19651 12.5473 6.43769C12.5473 6.67886 12.3508 6.87537 12.1096 6.87537C11.8685 6.87537 11.6719 6.67886 11.6719 6.43769C11.6719 6.19651 11.8685 6 12.1096 6ZM13.8578 12.4709C14.1003 12.4709 14.2955 12.6674 14.2955 12.9085C14.2955 13.1497 14.099 13.3462 13.8578 13.3462C13.6167 13.3462 13.4201 13.1497 13.4201 12.9085C13.4201 12.6674 13.6167 12.4709 13.8578 12.4709ZM12.1096 15.1672C12.3521 15.1672 12.5473 15.3637 12.5473 15.6048C12.5473 15.846 12.3508 16.0425 12.1096 16.0425C11.8685 16.0425 11.6719 15.846 11.6719 15.6048C11.6719 15.3637 11.8685 15.1672 12.1096 15.1672ZM13.8578 6.77074C14.1003 6.77074 14.2955 6.96725 14.2955 7.20842C14.2955 7.4496 14.099 7.64611 13.8578 7.64611C13.6167 7.64611 13.4201 7.4496 13.4201 7.20842C13.4201 6.96725 13.6167 6.77074 13.8578 6.77074ZM15.6277 13.3564C15.8702 13.3564 16.0654 13.553 16.0654 13.7941C16.0654 14.0353 15.8689 14.2318 15.6277 14.2318C15.3865 14.2318 15.19 14.0353 15.19 13.7941C15.19 13.553 15.3865 13.3564 15.6277 13.3564ZM15.6277 7.54147C15.8702 7.54147 16.0654 7.73798 16.0654 7.97916C16.0654 8.22033 15.8689 8.41684 15.6277 8.41684C15.3865 8.41684 15.19 8.22033 15.19 7.97916C15.19 7.73798 15.3865 7.54147 15.6277 7.54147ZM13.8425 8.56104C14.159 8.56104 14.4155 8.81752 14.4155 9.13399C14.4155 9.45045 14.159 9.70693 13.8425 9.70693C13.5261 9.70693 13.2696 9.45045 13.2696 9.13399C13.2696 8.81752 13.5261 8.56104 13.8425 8.56104ZM13.8425 10.516C14.159 10.516 14.4155 10.7724 14.4155 11.0889C14.4155 11.4054 14.159 11.6618 13.8425 11.6618C13.5261 11.6618 13.2696 11.4054 13.2696 11.0889C13.2696 10.7724 13.5261 10.516 13.8425 10.516ZM15.6124 9.30242C15.9289 9.30242 16.1853 9.55891 16.1853 9.87537C16.1853 10.1918 15.9289 10.4483 15.6124 10.4483C15.2959 10.4483 15.0395 10.1918 15.0395 9.87537C15.0395 9.55891 15.2959 9.30242 15.6124 9.30242ZM15.6124 11.325C15.9289 11.325 16.1853 11.5815 16.1853 11.8979C16.1853 12.2144 15.9289 12.4709 15.6124 12.4709C15.2959 12.4709 15.0395 12.2144 15.0395 11.8979C15.0395 11.5815 15.2959 11.325 15.6124 11.325ZM17.3338 10.0438C17.6503 10.0438 17.9067 10.3003 17.9067 10.6168C17.9067 10.9332 17.6503 11.1897 17.3338 11.1897C17.0173 11.1897 16.7608 10.9332 16.7608 10.6168C16.7608 10.3003 17.0173 10.0438 17.3338 10.0438ZM17.3338 12.0664C17.6503 12.0664 17.9067 12.3228 17.9067 12.6393C17.9067 12.9558 17.6503 13.2123 17.3338 13.2123C17.0173 13.2123 16.7608 12.9558 16.7608 12.6393C16.7608 12.3228 17.0173 12.0664 17.3338 12.0664ZM10.2938 12.4709C10.0514 12.4709 9.85613 12.6674 9.85613 12.9085C9.85613 13.1497 10.0526 13.3462 10.2938 13.3462C10.535 13.3462 10.7315 13.1497 10.7315 12.9085C10.7315 12.6674 10.535 12.4709 10.2938 12.4709ZM10.2938 6.77074C10.0514 6.77074 9.85613 6.96725 9.85613 7.20842C9.85613 7.4496 10.0526 7.64611 10.2938 7.64611C10.535 7.64611 10.7315 7.4496 10.7315 7.20842C10.7315 6.96725 10.535 6.77074 10.2938 6.77074ZM8.52393 13.3564C8.28148 13.3564 8.08624 13.553 8.08624 13.7941C8.08624 14.0353 8.28275 14.2318 8.52393 14.2318C8.7651 14.2318 8.96161 14.0353 8.96161 13.7941C8.96161 13.553 8.7651 13.3564 8.52393 13.3564ZM8.52393 7.54147C8.28148 7.54147 8.08624 7.73798 8.08624 7.97916C8.08624 8.22033 8.28275 8.41684 8.52393 8.41684C8.7651 8.41684 8.96161 8.22033 8.96161 7.97916C8.96161 7.73798 8.7651 7.54147 8.52393 7.54147ZM10.3244 8.56104C10.008 8.56104 9.75149 8.81752 9.75149 9.13399C9.75149 9.45045 10.008 9.70693 10.3244 9.70693C10.6409 9.70693 10.8974 9.45045 10.8974 9.13399C10.8974 8.81752 10.6409 8.56104 10.3244 8.56104ZM10.3244 10.516C10.008 10.516 9.75149 10.7724 9.75149 11.0889C9.75149 11.4054 10.008 11.6618 10.3244 11.6618C10.6409 11.6618 10.8974 11.4054 10.8974 11.0889C10.8974 10.7724 10.6409 10.516 10.3244 10.516ZM8.55455 9.30242C8.23809 9.30242 7.9816 9.55891 7.9816 9.87537C7.9816 10.1918 8.23809 10.4483 8.55455 10.4483C8.87101 10.4483 9.1275 10.1918 9.1275 9.87537C9.1275 9.55891 8.87101 9.30242 8.55455 9.30242ZM8.55455 11.325C8.23809 11.325 7.9816 11.5815 7.9816 11.8979C7.9816 12.2144 8.23809 12.4709 8.55455 12.4709C8.87101 12.4709 9.1275 12.2144 9.1275 11.8979C9.1275 11.5815 8.87101 11.325 8.55455 11.325ZM6.82295 10.0451C6.50649 10.0451 6.25 10.3016 6.25 10.618C6.25 10.9345 6.50649 11.191 6.82295 11.191C7.13941 11.191 7.3959 10.9345 7.3959 10.618C7.3959 10.3016 7.13941 10.0451 6.82295 10.0451ZM6.82295 12.0676C6.50649 12.0676 6.25 12.3241 6.25 12.6406C6.25 12.957 6.50649 13.2135 6.82295 13.2135C7.13941 13.2135 7.3959 12.957 7.3959 12.6406C7.3959 12.3241 7.13941 12.0676 6.82295 12.0676Z"
    fill="white" />
  <defs>
    <linearGradient id="paint0_linear_4329_39368" x1="12" y1="0" x2="12" y2="24" gradientUnits="userSpaceOnUse">
      <stop stop-color="#060A0A" />
      <stop offset="1" stop-color="#2D3233" />
    </linearGradient>
  </defs>
</svg>
