<svg
  width="24"
  height="24"
  viewBox="0 0 24 24"
  fill="none"
  xmlns="http://www.w3.org/2000/svg"
>
  <circle cx="12" cy="12" r="12" fill="#EBDCBF" />
  <path
    fill-rule="evenodd"
    clip-rule="evenodd"
    d="M14.9999 7.85301C14.9999 7.14851 15.0151 6.85743 15.6278 6H11.8606C12.4579 6.85743 12.4885 7.14851 12.4885 7.85301V12.4894C12.8632 12.4625 13.2269 12.4568 13.561 12.4588C13.5913 12.4591 13.6185 12.4783 13.6282 12.5072C13.6377 12.5361 13.6279 12.5674 13.6044 12.5862C13.5503 12.6282 13.4985 12.6709 13.4498 12.7136C13.3469 12.8027 13.2494 12.8984 13.1587 12.9996C13.1288 13.0329 13.0999 13.0668 13.0713 13.1015C13.0132 13.1724 12.9597 13.244 12.911 13.3159L12.9049 13.3253C12.9003 13.332 12.8959 13.3387 12.8914 13.3457C12.8878 13.3513 12.8841 13.357 12.8801 13.363C12.7591 13.5508 12.6575 13.7508 12.5772 13.9596C12.5611 13.9989 12.5449 14.0386 12.5312 14.0792C12.474 14.2362 12.427 14.3952 12.3819 14.5542C12.3622 14.6242 12.3431 14.6944 12.3239 14.7645C12.2441 15.0569 12.1644 15.349 12.0451 15.6344C11.9944 15.7558 11.9362 15.8737 11.8704 15.988C11.8364 16.0472 11.8004 16.1063 11.7608 16.1648L11.7554 16.1719L11.7531 16.1756C11.6458 16.3359 11.5208 16.4841 11.3806 16.6166C11.2428 16.7453 11.0842 16.8502 10.9118 16.9265L10.9034 16.9315C10.8294 16.9661 10.7538 16.9964 10.6765 17.0219C10.6296 17.0378 10.5824 17.0509 10.5354 17.0641C10.5295 17.0657 10.5237 17.0673 10.5178 17.069C10.5123 17.0704 10.5068 17.0718 10.5013 17.0732C10.4779 17.0793 10.4545 17.0853 10.4308 17.0905C10.3346 17.1117 10.2375 17.1281 10.14 17.1396C9.89804 17.1668 9.65368 17.1705 9.411 17.15C9.3505 17.1449 9.29135 17.1389 9.23353 17.1318C9.22797 17.1312 9.2225 17.1305 9.2171 17.1298C9.20847 17.1287 9.19999 17.1276 9.19152 17.1268C9.14009 17.1201 9.09035 17.1127 9.04161 17.1046H9.03825C8.97473 17.0989 8.91187 17.0885 8.85003 17.074C9.02884 16.342 9.54511 15.7696 10.1481 15.3921C10.5777 15.1229 11.0512 14.9528 11.4781 14.8936C11.1864 14.6526 10.8539 14.4664 10.4963 14.3431C11.0052 13.8923 11.6811 13.5626 12.4807 13.4725V13.4544C11.1423 13.3559 9.84224 13.9394 9.02615 15.0086C9.36596 14.9 9.72057 14.8466 10.0765 14.8503C9.94879 14.9387 9.82812 15.0361 9.71418 15.1407C9.6436 15.2052 9.57536 15.2724 9.50949 15.342C9.13371 15.74 8.83893 16.2102 8.61138 16.6666L8.42551 16.9406L8.3835 17.0024L8.37207 17.0266L8.41005 17.0602L8.4487 17.0942L8.47896 17.1211C8.49245 17.1292 8.5057 17.1376 8.519 17.146C8.52823 17.1518 8.53748 17.1576 8.54685 17.1634C9.64023 17.8457 10.8133 18.1593 12.1013 17.9207C13.4088 17.6784 14.2645 16.907 14.7031 15.663C14.9351 15.0059 14.9895 14.3206 14.9899 13.6305C14.9905 13.1556 14.9905 12.8013 14.9905 12.5304L14.9999 12.528V7.85301ZM8.49643 15.8832C8.55189 15.8153 8.60937 15.7487 8.66751 15.6828L8.66785 15.6832C8.72365 15.2637 8.83793 14.8099 9.11455 14.3804C9.34983 14.017 9.6604 13.7081 10.0251 13.4752C10.5551 13.1324 11.1813 12.9394 11.8159 12.8339C11.9594 12.809 12.105 12.7899 12.2492 12.7744L12.2935 12.7697L12.3745 12.7613C12.4027 12.7586 12.4317 12.7562 12.4603 12.7539L12.4717 12.7529L12.5046 12.7506L12.5332 12.7482L12.5618 12.7458C12.667 12.7378 12.7712 12.7314 12.8737 12.7267L12.9715 12.7227L12.9963 12.722C13.0039 12.7218 13.0115 12.7217 13.0191 12.7215C13.0412 12.7211 13.0635 12.7206 13.0868 12.7196C13.1368 12.7179 13.1873 12.7163 13.2363 12.7156C13.2767 12.6769 13.3187 12.639 13.3627 12.6006C12.8498 12.6033 12.2818 12.6279 11.7201 12.7213C11.0852 12.8262 10.4593 13.0198 9.92963 13.3626C9.56461 13.5952 9.25404 13.9041 9.01876 14.2674C8.67793 14.7982 8.53408 15.376 8.48836 15.8697L8.49643 15.8832Z"
    fill="#292A1C"
  />
</svg>
