<svg width="24" height="24" viewBox="0 0 24 24" fill="none" xmlns="http://www.w3.org/2000/svg">
<g clip-path="url(#clip0_2175_14806)">
<path d="M12.0693 23.5758C18.6289 23.5758 23.9466 18.3419 23.9466 11.8855C23.9466 5.42921 18.6289 0.195312 12.0693 0.195312C5.50965 0.195312 0.192017 5.42921 0.192017 11.8855C0.192017 18.3419 5.50965 23.5758 12.0693 23.5758Z" fill="#237673"/>
<path d="M12 23.8213C18.6274 23.8213 24 18.5333 24 12.0102C24 5.48719 18.6274 0.199219 12 0.199219C5.37258 0.199219 0 5.48719 0 12.0102C0 18.5333 5.37258 23.8213 12 23.8213Z" fill="#237673"/>
<mask id="mask0_2175_14806" style="mask-type:luminance" maskUnits="userSpaceOnUse" x="7" y="7" width="9" height="11">
<path d="M15.552 7.00391H7.87201V17.7756H15.552V7.00391Z" fill="white"/>
</mask>
<g mask="url(#mask0_2175_14806)">
<path d="M13.346 11.7701C13.3222 11.7704 13.2984 11.7706 13.2747 11.7709C13.2316 11.7715 13.1883 11.7723 13.1447 11.7731C13.1097 11.7737 13.0745 11.7745 13.039 11.7756C12.9862 11.777 12.933 11.7787 12.8796 11.7806C12.8578 11.7815 12.8363 11.7823 12.8145 11.7834C12.7625 11.7854 12.7102 11.7879 12.6577 11.7909C12.6409 11.7918 12.6241 11.7929 12.6071 11.7937C12.583 11.7951 12.559 11.7965 12.5347 11.7981C12.5101 11.7995 12.4855 11.8012 12.4606 11.8031C12.4592 11.8031 12.4581 11.8031 12.4567 11.8034C12.4321 11.8051 12.4072 11.8068 12.3823 11.8087C12.3314 11.8129 12.2803 11.817 12.2291 11.8218V11.9574L12.3113 11.949C12.3471 11.9454 12.3837 11.9424 12.4201 11.9393L12.457 11.9368L12.4888 11.934L12.521 11.9315C12.6384 11.9226 12.7552 11.9154 12.8699 11.9101L12.9792 11.9057L13.0068 11.9049C13.0398 11.904 13.0731 11.9035 13.108 11.9021C13.164 11.9001 13.2207 11.8985 13.2755 11.8976C13.3205 11.8543 13.3675 11.812 13.4167 11.7695C13.3932 11.7695 13.3697 11.7698 13.346 11.7701Z" fill="#E3DEA6"/>
<path d="M15.5521 7.00391C14.9038 7.90617 14.8876 8.21213 14.8876 8.9535V13.0892L14.8772 13.0916V13.1786C14.8764 13.9045 14.8188 14.6255 14.5736 15.3169C14.109 16.6257 13.2035 17.4374 11.8194 17.6922C10.4563 17.9434 9.21451 17.6133 8.05716 16.8958C8.03312 16.8808 8.00964 16.8655 7.98531 16.8511L7.87238 16.7519V16.7382C7.88103 16.7177 7.89753 16.6879 7.91569 16.6557C7.94449 16.6049 7.97776 16.5487 7.99257 16.5168C8.36551 15.7123 8.92797 14.8298 9.74121 14.2699C9.34311 14.2654 8.94642 14.3252 8.56651 14.4458C9.43677 13.312 10.7996 12.6695 12.222 12.7073H12.2293C12.3243 12.7101 12.4199 12.7157 12.5155 12.7246L12.5183 12.729C12.4205 12.7379 12.324 12.7501 12.2293 12.7654C12.2267 12.7657 12.2242 12.766 12.2217 12.7668C11.4183 12.8966 10.7353 13.2442 10.2109 13.7058C10.6109 13.8428 10.9827 14.0501 11.309 14.3179C10.7739 14.3913 10.1734 14.62 9.65007 14.9845C9.0507 15.4022 8.55254 15.9977 8.36943 16.7419C8.43876 16.758 8.50891 16.7696 8.57993 16.776H8.58383C8.63807 16.7849 8.69398 16.7933 8.75129 16.8005C8.76667 16.8022 8.78205 16.8044 8.79826 16.8063C8.86285 16.8141 8.92909 16.8211 8.99703 16.8263C9.26848 16.8491 9.5416 16.8452 9.81221 16.8147C9.92151 16.8019 10.0303 16.7838 10.1373 16.7602C10.1703 16.7533 10.2028 16.7446 10.2349 16.7363C10.2939 16.7202 10.3534 16.7038 10.4122 16.6841C10.4988 16.6554 10.5835 16.6218 10.666 16.5835L10.6755 16.5779C10.8684 16.4931 11.0456 16.3765 11.1997 16.2333C11.3568 16.0861 11.4965 15.9216 11.6165 15.7432L11.6193 15.7393L11.6251 15.7309C11.6696 15.6662 11.7096 15.6006 11.7476 15.5345C11.8211 15.4078 11.8865 15.2763 11.943 15.1415C12.1085 14.7478 12.2061 14.3432 12.3201 13.9403C12.3403 13.8692 12.3609 13.798 12.3825 13.7269C12.4143 13.6216 12.4484 13.5168 12.4868 13.4123C12.5024 13.367 12.5203 13.3231 12.5382 13.2795C12.6279 13.0472 12.7414 12.8252 12.877 12.6159C12.8873 12.6012 12.8955 12.5879 12.9047 12.5742L12.9117 12.564C12.9659 12.4837 13.0257 12.4042 13.0909 12.3255C13.2195 12.1702 13.3612 12.026 13.5144 11.894C13.5689 11.8465 13.6268 11.7992 13.6872 11.7526C13.7137 11.7317 13.7243 11.6967 13.7137 11.6647C13.7028 11.6328 13.6726 11.6111 13.6385 11.6111C13.2027 11.6086 12.7224 11.6172 12.2293 11.662V8.9535C12.2293 8.87874 12.229 8.80844 12.2276 8.74175C12.2167 8.14432 12.1331 7.81531 11.5648 7.00391H15.5521Z" fill="#E3DEA6"/>
<path d="M13.4167 11.7695C13.3675 11.812 13.3205 11.8543 13.2755 11.8976C13.2207 11.8985 13.1639 11.9001 13.108 11.9021C13.0731 11.9035 13.0398 11.904 13.0068 11.9049L12.9792 11.9057L12.8699 11.9101C12.7552 11.9154 12.6384 11.9226 12.521 11.9315L12.4888 11.934L12.4569 11.9368L12.42 11.9393C12.3837 11.9424 12.3471 11.9454 12.3113 11.949L12.2291 11.9574L12.2204 11.9582L12.171 11.9632C12.0097 11.9807 11.847 12.0016 11.6862 12.0293C10.9764 12.1469 10.2761 12.3611 9.68347 12.7421C9.27558 13.0011 8.9281 13.3443 8.66504 13.7483C8.35529 14.226 8.22753 14.7303 8.16519 15.1966C8.10004 15.2697 8.03603 15.3436 7.97397 15.4194L7.96503 15.4044C8.01591 14.8554 8.17721 14.2132 8.55825 13.623C8.82131 13.2189 9.16879 12.8758 9.57723 12.6168C10.1699 12.2358 10.8696 12.0205 11.5797 11.9037C11.6474 11.8926 11.715 11.8823 11.7829 11.8729C11.8006 11.8704 11.8184 11.8682 11.8363 11.8657C11.8651 11.8618 11.8942 11.8579 11.923 11.8546C11.9412 11.8523 11.959 11.8501 11.9772 11.8482C12.0331 11.8412 12.0891 11.8354 12.145 11.8298C12.1673 11.8276 12.1897 11.8254 12.2118 11.8234C12.2177 11.8226 12.2232 11.822 12.2291 11.8218C12.2803 11.817 12.3314 11.8129 12.3823 11.8087C12.4072 11.8068 12.4321 11.8051 12.4567 11.8034C12.4581 11.8031 12.4592 11.8031 12.4606 11.8031C12.4855 11.8012 12.5101 11.7995 12.5347 11.7981C12.559 11.7965 12.583 11.7951 12.6071 11.7937C12.6241 11.7929 12.6409 11.7918 12.6577 11.7909C12.7102 11.7879 12.7625 11.7854 12.8145 11.7834C12.8363 11.7823 12.8578 11.7815 12.8796 11.7806C12.933 11.7787 12.9862 11.777 13.039 11.7756C13.0745 11.7745 13.1097 11.7737 13.1447 11.7731C13.1883 11.7723 13.2316 11.7715 13.2747 11.7709C13.2984 11.7706 13.3222 11.7704 13.3459 11.7701C13.3697 11.7698 13.3932 11.7695 13.4167 11.7695Z" fill="#E3DEA6"/>
</g>
<path fill-rule="evenodd" clip-rule="evenodd" d="M6.59163 4.54404C6.95782 3.91974 7.6346 3.53516 8.36702 3.53516H10.398C10.5571 3.53516 10.686 3.66207 10.686 3.81862C10.686 3.97517 10.5571 4.10209 10.398 4.10209H8.36702C7.84038 4.10209 7.35376 4.37862 7.09046 4.8275L7.09046 4.82751L6.15705 6.41873C6.07752 6.55431 5.90138 6.60076 5.76363 6.52248C5.62588 6.4442 5.57869 6.27084 5.65822 6.13526L6.59162 4.54405C6.59162 4.54405 6.59163 4.54405 6.59163 4.54404ZM13.7222 3.81862C13.7222 3.66207 13.8512 3.53516 14.0102 3.53516H15.8342C16.5666 3.53516 17.2434 3.91974 17.6096 4.54405L17.3602 4.68578L17.6096 4.54405L18.543 6.13526C18.6225 6.27084 18.5753 6.4442 18.4376 6.52248C18.2998 6.60076 18.1237 6.55431 18.0442 6.41873L17.1108 4.82751L17.3596 4.68609L17.1107 4.8275C16.8475 4.37862 16.3608 4.10209 15.8342 4.10209H14.0102C13.8512 4.10209 13.7222 3.97517 13.7222 3.81862ZM4.18483 9.21396C4.32258 9.29224 4.36978 9.4656 4.29025 9.60118L3.35686 11.1924L3.10793 11.051L3.35686 11.1924C3.09354 11.6413 3.09354 12.1944 3.35686 12.6433L4.29025 14.2345C4.36978 14.3701 4.32258 14.5434 4.18484 14.6217C4.04709 14.7 3.87095 14.6535 3.79142 14.518L2.85803 12.9267C2.49182 12.3024 2.49182 11.5333 2.85803 10.909C2.85803 10.909 2.85803 10.909 2.85803 10.909L3.79142 9.31772C3.87095 9.18214 4.04709 9.13569 4.18483 9.21396ZM20.0164 9.21396C20.1542 9.13569 20.3303 9.18215 20.4098 9.31773L21.3431 10.9089C21.3431 10.9089 21.3431 10.909 21.3431 10.909C21.7095 11.5333 21.7094 12.3025 21.3431 12.9268L20.4098 14.5179C20.3303 14.6535 20.1541 14.7 20.0164 14.6217C19.8786 14.5434 19.8314 14.3701 19.911 14.2345L20.8443 12.6433L20.8443 12.6432C21.1077 12.1944 21.1077 11.6413 20.8443 11.1925L20.8443 11.1924L19.911 9.60117C19.8314 9.46559 19.8786 9.29223 20.0164 9.21396ZM5.76363 17.3132C5.90138 17.2349 6.07752 17.2814 6.15705 17.4169L7.09045 19.0082C7.09045 19.0082 7.09045 19.0082 7.09046 19.0082C7.35375 19.457 7.84037 19.7335 8.36702 19.7335H10.2338C10.3929 19.7335 10.5218 19.8604 10.5218 20.017C10.5218 20.1735 10.3929 20.3004 10.2338 20.3004H8.36702C7.63462 20.3004 6.95783 19.9159 6.59163 19.2917L6.59162 19.2917L5.65822 17.7004C5.57869 17.5648 5.62589 17.3915 5.76363 17.3132ZM18.4376 17.3132C18.5753 17.3915 18.6225 17.5648 18.543 17.7004L17.6096 19.2917L17.6096 19.2917C17.2434 19.9159 16.5666 20.3004 15.8342 20.3004H13.9674C13.8083 20.3004 13.6794 20.1735 13.6794 20.017C13.6794 19.8604 13.8083 19.7335 13.9674 19.7335H15.8342C16.3608 19.7335 16.8475 19.457 17.1107 19.0082C17.1108 19.0082 17.1108 19.0082 17.1108 19.0082L18.0442 17.4169C18.1237 17.2814 18.2998 17.2349 18.4376 17.3132Z" fill="#E3DEA6"/>
</g>
<defs>
<clipPath id="clip0_2175_14806">
<rect width="24" height="24" fill="white"/>
</clipPath>
</defs>
</svg>
