<svg width="24" height="24" viewBox="0 0 24 24" fill="none" xmlns="http://www.w3.org/2000/svg">
<circle cx="12" cy="12" r="12" fill="#425BDC"/>
<path d="M13.6095 16.084C12.0786 16.084 12.1181 15.4317 12.1181 15.4317C12.1181 14.902 13.5813 15.0637 13.5813 15.0637C18.7957 15.0749 18.9652 9.66667 18.9652 9.66667C19.4285 15.2087 15.1405 16.084 13.6095 16.084ZM15.0897 12.2927C15.0897 12.2927 14.2197 13.4691 14.6886 13.7312C14.6886 13.7312 15.2422 14.0936 16.0049 12.7778C16.7676 11.4675 18.1291 7.35842 13.022 5C13.022 5 17.6941 7.83234 15.0897 12.2927ZM13.6095 9.38232C13.6095 9.38232 14.2084 10.7093 14.6716 10.4417C14.6716 10.4417 15.2648 10.1462 14.4909 8.8415C13.7169 7.53684 10.7792 4.33094 6.16925 7.53126C6.16925 7.53126 10.9826 4.93309 13.6095 9.38232ZM10.3103 9.07567C10.3103 9.07567 11.7791 9.2039 11.7622 8.67423C11.7622 8.67423 11.7904 8.0219 10.2538 8.05536C8.71714 8.08881 4.46313 9.05894 5.05632 14.5898C5.05632 14.5898 5.09586 9.17603 10.3103 9.07009V9.07567ZM8.45162 11.6627C8.45162 11.6627 9.34423 10.5086 8.88663 10.2354C8.88663 10.2354 8.33863 9.86181 7.54771 11.1609C6.75679 12.46 5.30489 16.5356 10.3555 19C10.3555 19 5.74555 16.0673 8.44597 11.6627H8.45162ZM9.6493 14.6065C9.6493 14.6065 9.07871 13.2684 8.6098 13.5249C8.6098 13.5249 8.01096 13.8092 8.75669 15.1306C9.50241 16.452 12.3667 19.7192 17.0444 16.6193C17.0444 16.6193 12.1746 19.1115 9.64365 14.6121L9.6493 14.6065Z" fill="white"/>
</svg>
