<svg width="24" height="24" viewBox="0 0 24 24" fill="none" xmlns="http://www.w3.org/2000/svg">
<circle cx="12" cy="12" r="12" fill="#DBDBDB"/>
<path d="M11.7643 8.65235C11.7296 8.75858 11.7365 8.77246 11.681 8.87645C11.6255 8.98044 11.6186 9.05667 11.5005 9.10514C11.3824 9.15361 11.3826 9.0982 11.3131 9.19525C11.2437 9.2923 11.1743 9.34077 11.1743 9.34077C11.1743 9.34077 11.1327 9.49323 11.1327 9.34077C11.1327 9.18831 11.098 9.16749 11.1675 9.09126C11.2369 9.01503 11.2508 9.03585 11.3063 8.93186C11.3618 8.82787 11.4312 8.76552 11.3966 8.70317C11.3618 8.64082 11.4035 8.53683 11.2924 8.62694C11.1813 8.71705 11.1744 8.75164 11.1119 8.77246C11.0493 8.79328 11.0703 8.78634 11.0009 8.78634C10.9315 8.78634 10.9245 8.70317 10.8621 8.78634C10.7996 8.86951 10.7788 8.93186 10.7094 9.01503C10.64 9.0982 10.6539 9.13973 10.5636 9.12585C10.4733 9.11197 10.3831 9.04268 10.4387 8.96645C10.4942 8.89022 10.5497 8.86246 10.5775 8.80011C10.6053 8.73776 10.6817 8.70306 10.6123 8.68235C10.5429 8.66153 10.4665 8.54377 10.411 8.68929C10.3555 8.83481 10.3971 8.75858 10.3346 8.95257C10.2722 9.14656 10.3138 9.11197 10.2028 9.27137C10.0918 9.43077 10.1056 9.38913 10.0779 9.4723C10.0501 9.55547 9.77246 9.90193 9.78637 10.0198C9.80027 10.1376 9.85577 10.2138 9.75161 10.3524C9.64745 10.491 9.59195 10.6088 9.50169 10.7405C9.41144 10.8721 9.44619 11.1286 9.24482 10.9553C9.04356 10.782 8.94636 10.8167 9.02271 10.6295C9.09907 10.4425 9.10602 10.4355 9.14762 10.3038C9.18922 10.1722 9.23092 10.0682 9.14067 10.0682C9.05041 10.0682 8.96015 10.082 8.9394 10.0612C8.91855 10.0404 8.82145 9.97805 8.8839 9.85335C8.94636 9.72865 8.98806 9.74253 8.99501 9.63854C9.00196 9.53455 9.02282 9.48608 8.96026 9.31974C8.8978 9.1534 9.07821 9.10493 8.8561 9.09105C8.63398 9.07717 8.48822 9.13258 8.45347 9.14646C8.41871 9.16034 8.30771 9.14646 8.29381 8.98706C8.27991 8.82766 8.32161 8.90389 8.27991 8.7653C8.23831 8.62672 8.33541 8.6059 8.1827 8.56437C8.02999 8.52284 8.09244 8.49508 7.98839 8.52284C7.88423 8.5506 7.02358 8.65448 6.91257 8.55754C6.80146 8.46049 6.84317 8.46049 6.67656 8.34967C6.50995 8.23874 6.53775 8.21803 6.30869 8.15568C6.07962 8.09332 6.07267 8.08638 5.88531 8.07945C5.69795 8.07251 5.7604 8.16262 5.54524 8.05169C5.33008 7.94076 4.95729 7.80004 4.91366 7.78146C4.79656 7.73139 4.89975 7.84381 4.7124 7.64982C4.52504 7.45583 4.55273 7.43501 4.51113 7.31725C4.46953 7.19949 4.43478 7.19255 4.35842 7.15785C4.28207 7.12315 4.19876 7.07468 4.10155 7.04009C4.00435 7.00539 3.9558 6.9015 4.053 6.88762C4.15021 6.87375 4.25426 6.90844 4.32367 6.85293C4.39307 6.79752 4.50418 6.76976 4.61519 6.72822C4.7263 6.68669 4.8234 6.69353 4.91366 6.58964C5.00391 6.48565 5.04551 6.37483 5.11492 6.33319C5.18432 6.29155 5.28848 6.25696 5.44119 6.28472C5.5939 6.31248 5.54535 6.31942 5.69111 6.31248C5.83687 6.30554 5.95482 6.23625 6.03118 6.18084C6.10753 6.12543 6.07973 6.06308 6.29489 5.99379C6.51005 5.9245 6.55176 5.86908 6.66276 5.86908C6.77377 5.86908 6.79462 5.79285 6.86402 5.6958C6.93343 5.59876 7.00978 5.51558 7.15554 5.39088C7.3013 5.26618 7.30825 5.22454 7.46791 5.1276C7.62757 5.03055 7.75943 4.93361 7.84274 4.88503C7.92604 4.83656 8.13425 4.6841 8.25221 4.67716C8.37016 4.67022 8.42577 4.6494 8.57848 4.69798C8.73119 4.74645 8.89085 4.66328 8.91855 4.8088C8.94636 4.95432 8.9394 5.00279 8.76584 5.01667C8.59228 5.03055 8.58533 5.00973 8.46737 5.11372C8.34942 5.21771 8.25221 5.23148 8.155 5.39088C8.05779 5.55028 7.96764 5.63345 7.91203 5.77897C7.85653 5.9245 7.84958 5.88296 7.78713 6.06308C7.72467 6.2433 7.71077 6.32636 7.70382 6.39565C7.69687 6.46494 7.77323 6.37483 7.80798 6.2986C7.84274 6.22237 7.85653 6.13226 7.94679 6.07685C8.03705 6.02144 8.05095 5.99368 8.10645 5.98674C8.16195 5.9798 8.29381 5.87581 8.2244 6.0145C8.155 6.15308 8.155 6.12884 8.1134 6.22408C8.0718 6.31931 8.05095 6.38177 8.0579 6.40942C8.06485 6.43718 8.14121 6.33319 8.22451 6.2639C8.30782 6.19461 8.33562 6.14614 8.48138 6.15308C8.62714 6.16002 8.67569 6.12532 8.68264 6.18778C8.68959 6.25013 8.66874 6.28483 8.68959 6.368C8.71045 6.45117 8.75205 6.368 8.77985 6.32647C8.80765 6.28494 8.68959 6.31953 8.80765 6.28494C8.92561 6.25024 8.8562 6.15329 9.00196 6.26412C9.14772 6.37494 9.11992 6.35423 9.22408 6.45811C9.32824 6.5621 9.29348 6.45811 9.41144 6.61057C9.52939 6.76303 9.46694 6.64527 9.5711 6.82538C9.67526 7.0056 9.66831 7.01243 9.71686 7.0956C9.76541 7.17877 9.91812 7.26194 9.91812 7.26194C9.91812 7.26194 10.3971 7.19959 10.4248 7.10948C10.4526 7.01937 10.5428 7.24806 10.5775 7.27582C10.6123 7.30358 10.8066 7.24112 10.8274 7.13724C10.8483 7.03325 11.0495 7.26888 11.0495 7.32429C11.0495 7.37971 11.3064 7.06101 11.3758 6.97784C11.4452 6.89467 11.5216 6.77691 11.6395 6.74915C11.7575 6.72139 11.9102 6.6521 11.9449 6.63822C11.9797 6.62434 12.1046 6.64516 12.2573 6.62434C12.41 6.60352 12.4933 6.57587 12.653 6.57587C12.8127 6.57587 12.9584 6.55505 13.0348 6.56199C13.1111 6.56893 13.2569 6.54811 13.3332 6.47188C13.4096 6.39565 13.368 6.31248 13.479 6.28483C13.5901 6.25707 13.7497 6.25707 13.8469 6.25707C13.9441 6.25707 14.0342 6.22931 14.0551 6.25707C14.0759 6.28483 14.062 6.42341 14.0551 6.57587C14.0481 6.72833 14.0215 6.70751 14.0661 6.83232C14.1106 6.95702 14.1731 7.0056 14.2772 7.03325C14.3814 7.06101 14.5341 7.02631 14.6173 6.99172C14.7006 6.95702 14.7284 6.83232 14.8602 6.92937C14.9921 7.02642 14.9505 7.09571 15.0338 7.08183C15.1171 7.06795 15.1726 6.98478 15.1935 6.95713C15.2143 6.92937 15.249 6.90172 15.3114 6.87396C15.3739 6.8462 15.4502 6.92243 15.478 7.03336C15.5058 7.14429 15.4989 7.21358 15.5613 7.23429C15.6238 7.25511 15.6516 7.27582 15.6516 7.22735C15.6516 7.17888 15.6307 7.17888 15.61 7.10265C15.5891 7.02642 15.5058 6.92243 15.5752 6.87396C15.6446 6.82549 15.714 6.57598 15.7626 6.79773C15.8111 7.01948 15.7834 7.01948 15.7834 7.12347C15.7834 7.22746 15.7973 7.3591 15.8182 7.37992C15.8391 7.40074 15.9431 7.45615 15.8668 7.50462C15.7904 7.55309 15.6932 7.55309 15.6516 7.57391C15.61 7.59473 15.4573 7.49074 15.61 7.59473C15.7627 7.69872 15.7488 7.6779 15.8112 7.71943C15.8737 7.76096 15.9154 7.6779 15.9292 7.78178C15.9431 7.88577 15.8667 7.89271 15.9917 7.962C16.1166 8.03129 16.1513 8.03129 16.1652 8.05211C16.1791 8.07293 16.3388 8.12834 16.2138 8.16294C16.0889 8.19763 15.9708 8.23223 15.832 8.21141C15.6932 8.19059 15.6584 8.13518 15.4641 8.13518C15.2698 8.13518 15.1657 8.12824 15.1102 8.14212C15.0547 8.156 14.9713 8.10058 14.8811 8.09364C14.7908 8.0867 14.8463 8.60644 14.7839 8.60644C14.7214 8.60644 14.8186 8.71043 14.6797 8.60644C14.5409 8.50245 14.5409 8.50939 14.4924 8.48174C14.4438 8.45398 14.3605 8.40551 14.3675 8.36397C14.3744 8.32244 14.4299 8.3155 14.4508 8.30162C14.4716 8.28774 14.4716 8.22539 14.4369 8.21845C14.4021 8.21151 14.3397 8.19069 14.2217 8.17692C14.1037 8.16315 14.0898 8.13539 13.9718 8.13539C13.8537 8.13539 13.8191 8.16315 13.7288 8.11457C13.6386 8.0661 13.6594 8.0314 13.597 8.02446C13.5345 8.01752 13.5067 8.00364 13.4373 8.0314C13.391 8.04991 13.3332 8.07763 13.2637 8.11457C13.1596 8.16998 13.1804 8.13539 13.0971 8.21856C13.0138 8.30173 13.0832 8.32255 12.882 8.35714C12.6807 8.39184 12.7014 8.37102 12.5419 8.39184C12.3822 8.41266 12.3545 8.30173 12.3545 8.30173C12.3545 8.30173 11.9451 8.44725 11.8617 8.50266C11.7784 8.55807 11.7993 8.54654 11.7645 8.65277L11.7643 8.65235ZM16.4287 8.19731C16.4981 8.22507 16.5572 8.16614 16.6717 8.19037C16.7862 8.21461 16.7619 8.24931 16.8834 8.24579C17.0049 8.24237 17.0986 8.21461 17.0708 8.15226C17.043 8.08991 17.0569 8.10379 17.0014 8.04485C16.9459 7.98592 16.9598 7.96862 16.8799 7.89239C16.8001 7.81616 16.7099 7.89239 16.7099 7.89239C16.6995 7.91321 16.7272 7.94086 16.6786 7.96168C16.6301 7.9825 16.6127 7.97204 16.5468 8.01709C16.4809 8.06215 16.4149 8.06215 16.408 8.11756C16.401 8.17297 16.3594 8.16955 16.4288 8.19721L16.4287 8.19731ZM19.9825 16.7069C19.927 16.4921 19.8646 16.5822 19.8923 16.3674C19.9201 16.1526 19.8853 16.1872 19.9408 16.0279C19.9963 15.8686 19.8367 15.2795 19.7396 15.1687C19.6424 15.0577 19.5522 14.9261 19.5453 14.7944C19.5383 14.6628 19.5731 14.6697 19.5453 14.5103C19.5175 14.3509 19.5731 14.3025 19.4828 14.0946C19.3926 13.8867 19.4204 13.8244 19.3023 13.6164C19.1843 13.4085 19.1981 13.3946 19.0941 13.3254C18.99 13.2561 18.9622 13.1175 18.7887 13.1937C18.6151 13.2699 18.6221 13.2076 18.518 13.3531C18.4138 13.4986 18.0322 13.4778 17.9696 13.5679C17.9071 13.658 17.9488 13.6996 17.8863 13.8036C17.8239 13.9075 17.7614 13.9283 17.6711 14.0946C17.5809 14.2609 17.5809 14.351 17.4282 14.4757C17.2755 14.6005 17.1645 14.5035 17.1089 14.4549C17.0534 14.4065 16.9492 14.3233 16.8451 14.2054C16.7411 14.0876 16.6924 14.2401 16.7202 14.0391C16.748 13.8381 16.7966 13.8312 16.8382 13.6649C16.8798 13.4985 16.7688 13.5332 16.9145 13.3946C17.0603 13.2561 17.0395 13.3877 17.213 13.1451C17.3866 12.9026 17.3727 12.9857 17.4004 12.7155C17.4282 12.4453 17.3795 12.4799 17.4698 12.2998C17.56 12.1195 17.7058 11.5375 17.7197 11.3574C17.7336 11.1771 17.7058 11.0663 17.5739 10.9554C17.4421 10.8445 17.4212 10.9693 17.3588 10.7683C17.2963 10.5674 17.1645 10.6089 17.3657 10.4773C17.567 10.3456 17.6364 10.3665 17.5531 10.2347C17.4698 10.1031 17.4837 10.0823 17.3449 9.95755C17.2061 9.83285 17.2685 9.81203 17.0118 9.7011C16.7549 9.59028 16.9702 9.64569 16.6786 9.56946C16.3871 9.49323 15.8596 9.38241 15.7486 9.15372C15.6847 9.02218 15.6028 9.02208 15.4432 9.02902C15.2835 9.03595 15.4154 9.11101 15.2419 9.02848C15.0683 8.94595 15.0892 8.91125 14.9643 8.91125C14.8394 8.91125 14.8324 8.78655 14.7491 8.91125C14.6658 9.03595 14.6728 9.02218 14.6103 9.04289C14.5479 9.06371 14.5548 9.03595 14.4646 9.09137C14.3743 9.14678 14.3604 9.11219 14.2633 9.18148C14.1661 9.25077 14.1314 9.1676 14.0897 9.32006C14.0481 9.47252 14.0412 9.46558 14.0897 9.55569C14.1383 9.6458 14.1452 9.67345 14.284 9.74274C14.4228 9.81203 14.534 9.82591 14.4089 9.88826C14.2839 9.95061 14.1174 10.013 14.0896 10.0477C14.0618 10.0824 14.0063 10.0685 14.1312 10.1585C14.2561 10.2486 14.2839 10.2417 14.3048 10.3248C14.3256 10.408 14.4505 10.4149 14.2909 10.4149C14.1312 10.4149 14.166 10.408 14.0133 10.3526C13.8606 10.2972 13.819 10.2279 13.7842 10.2972C13.7494 10.3665 13.6663 10.2418 13.7426 10.4774C13.819 10.713 13.8468 10.7546 13.9023 10.8447C13.9578 10.9348 13.9995 11.1911 13.9162 11.3297C13.8801 11.3897 13.8883 11.3926 13.8929 11.3911C13.8863 11.3951 13.8611 11.4134 13.7843 11.4822C13.5831 11.6624 13.6525 11.794 13.465 11.7109C13.2775 11.6277 13.1596 11.9673 13.229 11.5792C13.2984 11.1911 13.4233 11.3698 13.3053 11.0137C13.1874 10.6575 13.0693 10.4774 13.0138 10.6021C12.9583 10.7268 12.9444 10.7337 12.9653 10.914C12.9861 11.0942 13.0347 11.0942 12.9931 11.2328C12.9515 11.3713 13.0416 11.3644 12.9028 11.4198C12.764 11.4752 12.7085 11.4406 12.5835 11.4406C12.4585 11.4406 12.4099 11.3505 12.4099 11.4891C12.4099 11.6277 12.4377 11.5787 12.4099 11.7695C12.3821 11.9603 12.3197 11.8564 12.3336 12.0573C12.3475 12.2582 12.1393 12.8542 12.0975 12.9582C12.056 13.0622 12.1531 13.1107 11.9796 13.3046C11.806 13.4986 11.7297 13.4293 11.695 13.6372C11.6604 13.8451 11.7436 13.8937 11.7853 14.0114C11.827 14.1292 11.8963 14.0877 11.8477 14.2886C11.7992 14.4895 11.7714 14.5173 11.7505 14.6281C11.7297 14.7389 11.6533 14.5934 11.7297 14.8707C11.806 15.1478 11.7782 15.1063 11.8338 15.2102C11.8893 15.3142 12.0351 15.8339 12.1601 15.9656C12.285 16.0972 12.4031 16.0695 12.3822 16.2151C12.3614 16.3606 12.285 16.3467 12.3753 16.5546C12.4655 16.7624 12.4863 16.7833 12.5141 16.9496C12.5419 17.1159 12.4655 17.3169 12.5419 17.4209C12.6182 17.5249 12.6807 17.5386 12.5419 17.7812C12.4031 18.0238 12.3406 18.0238 12.3267 18.2525C12.3128 18.4812 12.3615 18.5366 12.2712 18.6682C12.181 18.7998 12.0006 19.1048 11.9867 19.1464C11.9728 19.1879 11.9103 19.2157 12.0283 19.2642C12.1462 19.3126 12.2018 19.2434 12.764 19.3057C13.3262 19.3681 18.3238 19.3057 18.3238 19.3057C18.3238 19.3057 18.3863 19.2988 18.4002 19.1602C18.4141 19.0216 18.4141 18.9869 18.5251 18.8276C18.6362 18.6682 18.6917 18.6682 18.7056 18.495C18.7195 18.3219 18.5459 18.2109 18.6362 18.0377C18.7264 17.8644 18.5598 17.906 18.8097 17.809C19.0597 17.7119 19.0179 17.6843 19.1498 17.5803C19.2817 17.4763 19.0665 17.4556 19.2192 17.2684C19.3719 17.0814 19.365 17.1991 19.4135 17.012C19.4621 16.8249 19.4205 16.7555 19.5454 16.7833C19.6703 16.811 19.6495 17.005 19.8022 16.9357C19.955 16.8664 20.0383 16.9218 19.9828 16.707L19.9825 16.7069Z" fill="#114297"/>
</svg>
