<svg width="24" height="24" viewBox="0 0 24 24" fill="none" xmlns="http://www.w3.org/2000/svg">
<circle cx="12" cy="12" r="12" fill="#143A7C"/>
<path d="M15.6478 14.9883V7H14.8174L14.8264 14.9883H15.6478Z" fill="white"/>
<path d="M14.3646 13.0352V7H13.5342L13.5432 13.0352H14.3646Z" fill="white"/>
<path d="M9.92924 10.2422L14.5087 17H15.5534L9.82544 8.61621L9.92924 10.2422Z" fill="white"/>
<path d="M12.8196 17H13.8643L11.0004 12.8081L9.56836 10.7122V12.166L10.5299 13.6211L12.8196 17Z" fill="white"/>
<path d="M16.9999 7V17H16.1385L10.4115 8.62598H10.3358V17H9.45068V7H10.3074L16.0533 15.3838H16.129V7H16.9999Z" fill="white"/>
<path d="M9.03549 17V7H8.20508L8.2141 17H9.03549Z" fill="white"/>
<path d="M7.83041 17V7H7L7.00903 17H7.83041Z" fill="white"/>
</svg>
