<svg width="24" height="24" viewBox="0 0 24 24" fill="none" xmlns="http://www.w3.org/2000/svg">
<circle cx="12" cy="12" r="12" fill="#DBDBDB"/>
<path d="M19.8914 10.2265C19.8981 10.32 19.8656 10.4235 19.99 10.477L19.9916 10.4761C20.0067 10.482 20.0025 10.6114 19.9724 10.6323C19.8305 10.73 19.7044 10.8202 19.6376 11.0014C19.5683 11.1893 19.2518 11.3012 19.0372 11.267C18.9996 11.2603 18.9595 11.2578 18.9228 11.2653C18.7775 11.2937 18.7073 11.2118 18.6514 11.0958C18.6347 11.0615 18.5929 11.039 18.5628 11.0106C18.5486 11.054 18.5269 11.0974 18.5228 11.1417C18.5152 11.2135 18.5127 11.287 18.5236 11.3571C18.5294 11.3947 18.562 11.4465 18.5946 11.459C18.7841 11.5308 18.8159 11.621 18.6864 11.7747C18.8 11.8532 18.7649 11.9292 18.6797 12.0043C18.6547 12.026 18.6271 12.0469 18.6113 12.0745C18.4952 12.2782 18.339 12.3734 18.1019 12.2824C18.0668 12.269 18.02 12.2841 17.9733 12.2857C18.0735 12.421 18.2797 12.4561 18.4543 12.3826C18.5829 12.3292 18.7198 12.2949 18.8434 12.2331C18.942 12.1839 19.0271 12.1079 19.1257 12.0377L19.2835 12.2248C19.185 12.3751 19.0839 12.5254 18.9862 12.6791C18.901 12.8135 18.7499 12.7551 18.6355 12.8035C18.5787 12.8277 18.5236 12.8544 18.4651 12.8745C18.3716 12.907 18.2781 12.9563 18.182 12.9605C18.0752 12.9655 18.0301 13.0139 17.9908 13.0999C17.9507 13.1876 17.8981 13.2703 17.8514 13.3546C17.8355 13.383 17.8246 13.4273 17.8013 13.4356C17.5749 13.52 17.4647 13.7404 17.2802 13.8774C17.0104 14.0778 16.8777 14.3809 16.8518 14.7158C16.8359 14.9212 16.8276 15.125 16.6104 15.2169C16.4568 15.282 16.2898 15.3179 16.1269 15.3596C15.9741 15.3989 15.8188 15.429 15.6392 15.4682C15.2159 15.1667 14.7766 14.8544 14.3374 14.5429C14.0084 14.3091 13.6718 14.0845 13.352 13.839C13.2125 13.7313 13.0747 13.7755 12.942 13.7956C12.3532 13.8841 11.7662 13.9876 11.1741 14.087C11.1549 14.0427 11.1232 14.0035 11.1257 13.9659C11.1407 13.7304 10.9486 13.6294 10.8075 13.5133C10.7532 13.4682 10.6154 13.5242 10.5061 13.535V13.3997C10.2263 13.4214 9.94656 13.4381 9.66764 13.4649C9.38288 13.4916 9.09979 13.5292 8.81587 13.5584C8.57453 13.5834 8.32401 13.5726 8.09269 13.6344C7.89144 13.6887 7.71608 13.8315 7.5215 13.9191C7.09144 14.1129 6.72067 14.4302 6.19791 14.4227C5.78789 14.4169 5.3762 14.5171 4.96451 14.5663C4.65052 14.6039 4.3357 14.6348 4 14.6715C4.02589 14.4828 4.04927 14.3091 4.07265 14.1388C4.36576 14.087 4.49353 13.9225 4.40919 13.7371C4.47432 13.6302 4.5144 13.5058 4.59958 13.4381C4.72651 13.3388 4.8785 13.2336 5.03132 13.2127C5.33862 13.1701 5.56409 13.0114 5.78622 12.8194C5.89562 12.7242 6.04509 12.6732 6.14864 12.573C6.25136 12.4728 6.31983 12.3358 6.41336 12.1997C6.47599 12.2273 6.52944 12.2148 6.58288 12.1012C6.63299 11.9935 6.72735 11.854 6.90522 11.9609C6.93027 11.9768 7.00376 11.9542 7.02714 11.9258C7.19666 11.7246 7.40376 11.6169 7.67182 11.6244C7.71942 11.6252 7.78622 11.5759 7.81461 11.5308C7.86806 11.4457 7.90146 11.3471 7.93987 11.2528C7.99415 11.1217 8.04843 11.0031 8.22213 10.9864C8.26305 10.9822 8.31733 10.877 8.32401 10.8135C8.34071 10.6498 8.29311 10.4761 8.42589 10.3384C8.45678 10.3066 8.48935 10.2574 8.52526 10.254C8.70981 10.2356 8.8977 10.2415 9.08225 10.2181C9.72777 10.1379 10.3724 10.0519 11.0171 9.96174C11.5382 9.88909 12.0585 9.80975 12.5787 9.72792C13.0296 9.65694 13.4797 9.58428 13.929 9.50328C14.7624 9.35213 15.595 9.19932 16.4267 9.03815C17.2159 8.88533 18.0017 8.72165 18.7891 8.56048C18.9286 8.53126 19.0489 8.47698 19.1215 8.68909C19.1616 8.80516 19.3219 8.87781 19.4188 8.97886C19.4789 9.04149 19.5332 9.11414 19.5666 9.19263C19.58 9.22353 19.534 9.31706 19.5081 9.3204C19.3921 9.3346 19.2735 9.32625 19.1474 9.32625C19.1691 9.45401 19.0672 9.49911 18.9537 9.5275C18.7858 9.56925 18.6539 9.65694 18.5328 9.78136C18.4676 9.84984 18.3641 9.88742 18.2706 9.91998C18.1453 9.96424 18.1228 9.97927 18.0944 10.1471C18.1428 10.1496 18.1954 10.1672 18.2363 10.1513C18.4443 10.072 18.6706 10.0152 18.8468 9.88992C18.9879 9.78888 19.1115 9.79806 19.2701 9.79806C19.2701 9.87238 19.2585 9.93919 19.2735 9.99932C19.286 10.0477 19.3228 10.1062 19.3645 10.1246C19.3896 10.1354 19.4564 10.0878 19.4839 10.0511C19.5257 9.99681 19.5365 9.91664 19.5841 9.87155C19.6284 9.8298 19.7035 9.79973 19.7637 9.8014C19.7962 9.80224 19.8447 9.87489 19.8555 9.92249C19.8778 10.0171 19.8842 10.1148 19.8905 10.2119L19.8914 10.2265Z" fill="#114297"/>
</svg>
