<svg width="24" height="24" viewBox="0 0 24 24" fill="none" xmlns="http://www.w3.org/2000/svg">
<circle cx="12" cy="12" r="12" fill="#425BDC"/>
<g clip-path="url(#clip0_4491_1636)">
<path d="M16.9708 7.08531H15.1584C15.1584 7.08531 15.1603 11.8754 15.1556 13.9877C15.1556 14.233 15.2853 15.0939 14.5428 15.1818C14.0101 15.2447 13.8264 14.6255 13.7872 14.5079C13.1501 12.5817 12.5186 10.6527 11.875 8.7283C11.321 7.07142 9.42648 6.48272 7.98347 7.50647C7.20647 8.05814 7.00126 8.85418 7.00032 9.73631C6.99659 11.9726 7.02644 16.8674 7.02644 16.8674H8.88547C8.88547 16.8674 8.878 11.1757 8.89106 9.66504C8.89573 9.10225 9.10933 8.82086 9.51136 8.77643C10.016 8.72182 10.1233 9.10873 10.2389 9.4614C10.8723 11.3895 11.501 13.3185 12.1278 15.2484C12.5382 16.5119 13.6063 17.1663 14.9411 16.9636C16.2003 16.7711 16.9978 15.8297 16.9997 14.5116C17.0034 12.1827 16.9708 7.08623 16.9708 7.08623V7.08531Z" fill="white"/>
</g>
<defs>
<clipPath id="clip0_4491_1636">
<rect width="10" height="10" fill="white" transform="translate(7 7)"/>
</clipPath>
</defs>
</svg>
