<svg width="24" height="24" viewBox="0 0 24 24" fill="none" xmlns="http://www.w3.org/2000/svg">
<circle cx="12" cy="12" r="12" fill="#DBDBDB"/>
<path d="M8.17096 6.00004C8.17096 6.00004 8.08516 10.8253 7.93506 11.0826C7.93506 11.0826 15.0551 17.6664 15.1838 17.838C15.1838 17.838 15.2267 18.2025 15.3553 17.838C15.484 17.4734 15.4626 17.3233 15.4197 17.1946C15.3768 17.0659 15.3982 17.023 15.3553 16.7871C15.3124 16.5512 14.9693 16.444 15.1838 16.2724C15.3982 16.1009 15.2716 16.058 15.4529 16.1223C15.6341 16.1867 15.5912 16.2939 15.7842 16.2081C15.9773 16.1223 16.0416 15.6505 16.063 15.5647C16.0845 15.4789 15.9129 6.12869 15.9129 6.12869C15.9129 6.12869 9.24325 6.10724 8.17096 6V6.00004Z" fill="#114297"/>
</svg>
