<svg width="24" height="24" viewBox="0 0 24 24" fill="none" xmlns="http://www.w3.org/2000/svg">
<circle cx="12" cy="12" r="12" fill="#DBDBDB"/>
<path d="M16.0551 17.2772L16.0302 17.1769L15.9424 17.0708L15.8044 16.9772L15.7032 16.9168L14.2033 16.232L14.3193 16.1779L14.3616 16.0894L14.3789 15.9912L14.3637 15.866L14.2609 15.784L14.0376 15.6913L13.864 15.6181L13.7179 15.4805L13.6677 15.3119L13.6549 15.1125L13.5761 14.9548L13.5241 14.7965L13.3828 14.6917L13.2537 14.6689L13.1473 14.517L13.0367 14.359L12.8269 14.2794L12.5361 14.2973L11.1319 14.3161L7.8665 14.3475L4.16377 14.3817L4 14.3741L4.06251 13.5968L4.51874 13.3732L4.99411 13.0335L5.37697 12.7655L5.46079 12.5166L5.58297 12.4582L5.75845 12.3693L5.85919 12.2512L5.84639 12.0972L5.80536 11.9222L5.74794 11.8401L5.59834 11.1026L5.60605 10.9682L6.05548 10.7758L6.61336 10.7383L7.0277 10.6995L7.36913 10.7118L7.64033 10.7596L8.00547 10.864L8.19736 10.9538L8.32364 11.008L8.48638 11.0367L8.64456 11.0006L8.83415 10.9222L9.03518 10.8698L9.45684 10.8802L9.79095 10.8432L10.0936 10.7128L10.3288 10.6024L10.522 10.4128L10.6706 10.2952L10.8935 10.2546L11.002 10.2738L11.1064 10.0444L11.1127 9.64605L10.9595 9.42731L10.9436 9.33662L11.0439 9.26639L11.2034 9.22262L11.2759 9.08359L11.3004 8.94411L11.2001 8.87851L11.0948 8.93188L11.042 9.05039L10.9299 9.00668L10.8815 8.91828L10.8669 8.81982L10.7826 8.70908L11.6422 8.0936L11.9439 7.78726L12.0902 7.50143L12.53 6.95577L12.9757 6.60292L13.4273 6.30703L13.8987 6.12646L14.4219 6.05892L16.4697 5.90869L16.4232 6.17218L16.4474 6.35223L16.4574 6.52177L16.5158 6.64395L16.4994 6.73692L16.4497 6.79206L16.4087 6.88869L16.4529 7.00034L16.5259 7.08514L16.5642 7.13983L16.5505 7.21732L16.5164 7.41103L16.556 7.458L16.6668 7.50949L16.793 7.56371L16.7575 7.7652L16.8469 8.02863L16.8237 8.16034L16.7425 8.25788C16.7425 8.25788 16.6514 8.32171 16.6445 8.36045C16.6377 8.3992 16.6008 8.6084 16.6008 8.6084L16.6843 8.95068L16.7458 9.14531L16.8115 9.31668L16.7814 9.48714L16.7405 9.71959L16.817 9.82896L17.029 9.85033L17.0518 10.1739L17.0301 10.8412L17.0648 11.143L17.1204 11.5523L17.1624 11.7675L17.1282 11.9612L17.094 12.1549L16.8253 13.9052L16.8509 14.2133L16.865 14.3596L16.8797 14.5939L16.8387 14.8264L16.8091 15.2207L16.7585 15.5073L16.7176 15.7398L16.6834 15.9335L16.7267 16.0051L16.8384 16.0967L16.9355 16.2256L16.9232 16.2953L16.904 16.4043L16.823 16.5014L16.7542 16.5292L16.7041 16.5869L16.6208 16.6362L16.5837 16.7256L16.6081 16.7991L16.6892 16.8827L16.6707 16.9273L16.111 17.3826L16.0985 17.6201L16.1696 17.6247L16.284 17.5649L16.3546 17.4815L16.4667 17.3894L16.5925 17.3556L16.8778 17.2781L16.9963 17.1951L17.1595 17.176L17.2448 17.191L17.3719 17.1495L17.4508 17.1554L17.4781 17.0004L17.6089 16.9836L17.7821 16.9981L17.9525 17.0282L18.195 16.9671L18.4557 16.8932L18.6558 16.8007L18.8025 16.7391L18.9731 16.6329L19.1085 16.5449L19.155 16.5531L19.0998 16.6392L19.0032 16.734L18.9029 16.8043L18.8418 16.8335L18.8077 16.8913L18.7876 16.9597L18.7885 16.9999L18.8337 17.0158L18.9098 17.0372L19.0005 17.0213L19.3213 16.7423L19.6335 16.6935L19.7994 16.6588L19.9562 16.6305L20 16.6542L19.9836 16.7472L19.5269 17.0262L19.2781 17.214L19.0762 17.3622C19.0762 17.3622 18.9905 17.3951 18.9645 17.4064C18.9385 17.4178 18.8182 17.4206 18.8182 17.4206L18.7594 17.3463L18.6938 17.3108L18.6149 17.3048L18.4745 17.376L18.1778 17.5633L17.8884 17.6641L17.6045 17.7339L17.4076 17.7631L17.0493 17.8917L16.8351 17.9737L16.6801 17.9464L16.4933 18.0093L16.4149 18.0914L16.3141 18.0736L16.2982 17.9829L16.1901 17.916L16.1076 17.8854L16.0452 17.9224L16.0206 18.0618L15.9198 18.0441L15.9034 18.0012L15.9445 17.9046L16.0252 17.8549L15.9946 17.6657L16.0356 17.4333L16.0552 17.2769L16.0551 17.2772Z" fill="#114297"/>
</svg>
