<svg width="24" height="24" viewBox="0 0 24 24" fill="none" xmlns="http://www.w3.org/2000/svg">
<path d="M12 24C18.6274 24 24 18.6274 24 12C24 5.37258 18.6274 0 12 0C5.37258 0 0 5.37258 0 12C0 18.6274 5.37258 24 12 24Z" fill="#143A7C"/>
<path d="M16.6782 14.5276L20.0206 13.9337L15.4872 12.6511C15.4954 12.62 15.5036 12.5906 15.5118 12.5579L17.4128 11.8708L20.0222 9.69816L15.4365 10.8352C15.43 10.8139 15.4218 10.7943 15.4152 10.773L16.6782 9.20409L17.7793 5.99264L14.4729 9.32352C14.4467 9.30061 14.4222 9.27607 14.3944 9.25317L14.8214 7.36851L14.3977 4L12.8746 8.50061C12.8435 8.49407 12.8124 8.4908 12.7813 8.48425L12.0778 6.58978L9.88232 4L11.0684 8.61023C11.0455 8.61841 11.0242 8.62659 11.0013 8.63477L9.42588 7.28834L6.24715 6.09407L9.58457 9.60818C9.58457 9.60818 9.5813 9.61145 9.57966 9.61309L7.45942 9.15337L4.09255 9.60654L8.81238 11.1575C8.80911 11.1722 8.80911 11.1853 8.80584 11.2L6.67578 11.8708L3.97803 13.9321L8.91218 12.9276L7.45451 14.7043L6.32404 17.9059L9.80707 14.4638L9.3948 16.6495L9.93958 20L11.3809 15.1755C11.3907 15.1771 11.4005 15.1804 11.412 15.1836L12.3216 17.3481L14.6251 19.8429L13.2296 15.2327L14.949 16.4777L18.2128 17.4135L14.6398 14.2119C14.6496 14.202 14.6578 14.1922 14.6676 14.1824L16.6815 14.5309L16.6782 14.5276Z" fill="white"/>
</svg>
