<svg width="25" height="25" viewBox="0 0 25 25" fill="none" xmlns="http://www.w3.org/2000/svg">
<path d="M11.5908 0.426232C12.4091 0.0245894 13.3624 0.0245892 14.1807 0.426232L21.4105 3.9748C22.2288 4.37644 22.8232 5.13601 23.0253 6.0385L24.8109 14.012C25.013 14.9145 24.8009 15.8617 24.2346 16.5854L19.2314 22.9797C18.6651 23.7035 17.8063 24.125 16.898 24.125H8.87348C7.96522 24.125 7.10639 23.7035 6.54011 22.9797L1.53689 16.5854C0.970604 15.8617 0.758491 14.9145 0.960596 14.012L2.74622 6.0385C2.94833 5.13601 3.54266 4.37644 4.36096 3.9748L11.5908 0.426232Z" fill="url(#paint0_linear_3494_25401)"/>
<path d="M12.8857 6.125C9.68574 6.125 6.88574 8.69833 6.88574 12.125C6.88574 13.5383 7.37908 14.8383 8.19908 15.865L6.88574 17.185L7.82574 18.125L9.13908 16.8117C10.1724 17.6317 11.4724 18.125 12.8857 18.125C14.4191 18.125 15.9591 17.5383 17.1257 16.365C18.2991 15.1983 18.8857 13.6583 18.8857 12.125V6.125H12.8857Z" fill="url(#paint1_linear_3494_25401)"/>
<path d="M14.1595 8.20955L10.0161 11.921C9.76014 12.153 9.90412 12.5809 10.2481 12.6129L13.4836 12.9249L11.5439 15.6285C11.4559 15.7525 11.4679 15.9245 11.5759 16.0325C11.6959 16.1524 11.8838 16.1564 12.0078 16.0405L16.1512 12.329C16.4072 12.097 16.2632 11.6691 15.9193 11.6371L12.6837 11.3251L14.6235 8.62149C14.7114 8.49751 14.6994 8.32553 14.5915 8.21754C14.4715 8.09756 14.2835 8.09356 14.1595 8.20955Z" fill="white"/>
<defs>
<linearGradient id="paint0_linear_3494_25401" x1="12.8857" y1="0.125" x2="12.8857" y2="24.125" gradientUnits="userSpaceOnUse">
<stop stop-color="#060A0A"/>
<stop offset="1" stop-color="#2D3233"/>
</linearGradient>
<linearGradient id="paint1_linear_3494_25401" x1="18.8857" y1="6.125" x2="6.88574" y2="17.375" gradientUnits="userSpaceOnUse">
<stop stop-color="#21E5A4"/>
<stop offset="1" stop-color="#009B73"/>
</linearGradient>
</defs>
</svg>
