<svg xmlns="http://www.w3.org/2000/svg" width="24" height="24" viewBox="0 0 24 24" fill="none">
  <circle cx="12" cy="12" r="12" fill="#192D24"/>
  <path fill-rule="evenodd" clip-rule="evenodd" d="M23.7331 13.752C22.8851 19.549 17.8924 24 11.8601 24C9.2336 24 6.80416 23.1562 4.82812 21.7248C8.3086 16.7519 14.0796 13.5 20.6101 13.5C21.6735 13.5 22.7167 13.5862 23.7331 13.752Z" fill="#3E705B"/>
  <path fill-rule="evenodd" clip-rule="evenodd" d="M12 4C12 6.20914 10.2091 8 8 8C10.2091 8 12 9.79086 12 12C12 9.79086 13.7909 8 16 8C13.7909 8 12 6.20914 12 4Z" fill="#D9D9D9"/>
  <path fill-rule="evenodd" clip-rule="evenodd" d="M0 13.838C1.16937 13.6161 2.37619 13.5 3.61013 13.5C10.033 13.5 15.7211 16.6456 19.2181 21.4802C17.1861 23.0595 14.633 24 11.8601 24C5.85767 24 0.884555 19.5929 0 13.838Z" fill="#65B491"/>
</svg>
