<svg width="24" height="24" viewBox="0 0 24 24" fill="none" xmlns="http://www.w3.org/2000/svg">
<g clip-path="url(#clip0_1693_895)">
<mask id="mask0_1693_895" style="mask-type:alpha" maskUnits="userSpaceOnUse" x="0" y="0" width="24" height="24">
<path d="M12 24C18.6274 24 24 18.6274 24 12C24 5.37258 18.6274 0 12 0C5.37258 0 0 5.37258 0 12C0 18.6274 5.37258 24 12 24Z" fill="#8247E5"/>
</mask>
<g mask="url(#mask0_1693_895)">
<path d="M0 0H24V24H0V0Z" fill="#F8F9FD"/>
<path d="M14.6667 5.33333H24V0H14.6667V5.33333ZM0 24H24V18.6667H0V24ZM14.6667 14.6667H24V9.33333H14.6667V14.6667Z" fill="#EF5350"/>
<path d="M0 0H14.6667V14.6667H0V0Z" fill="#1E88E5"/>
<path d="M3.22662 1.62655C3.23671 1.60696 3.25201 1.59053 3.27082 1.57906C3.28964 1.56759 3.31125 1.56152 3.33328 1.56152C3.35532 1.56152 3.37693 1.56759 3.39575 1.57906C3.41456 1.59053 3.42985 1.60696 3.43995 1.62655L3.79995 2.57322C3.81328 2.62655 3.86662 2.65322 3.90662 2.65322L4.91995 2.70655C5.02662 2.70655 5.06662 2.83988 4.98662 2.91988L4.18662 3.54655C4.16921 3.56347 4.15734 3.58527 4.15258 3.60907C4.14782 3.63288 4.15039 3.65757 4.15995 3.67988L4.42662 4.63988C4.43474 4.66423 4.43483 4.69054 4.4269 4.71495C4.41896 4.73935 4.40341 4.76057 4.38253 4.77549C4.36164 4.79041 4.33653 4.79824 4.31086 4.79783C4.2852 4.79742 4.26035 4.78879 4.23995 4.77322L3.39995 4.22655C3.38022 4.21336 3.35702 4.20633 3.33328 4.20633C3.30955 4.20633 3.28635 4.21336 3.26662 4.22655L2.42662 4.77322C2.40622 4.78879 2.38136 4.79742 2.3557 4.79783C2.33004 4.79824 2.30492 4.79041 2.28404 4.77549C2.26315 4.76057 2.2476 4.73935 2.23967 4.71495C2.23173 4.69054 2.23183 4.66423 2.23995 4.63988L2.50662 3.66655C2.51464 3.64292 2.5151 3.61739 2.50793 3.59349C2.50076 3.56959 2.48632 3.54852 2.46662 3.53322L1.67995 2.91988C1.66112 2.90478 1.64727 2.88436 1.64023 2.86127C1.63319 2.83818 1.63327 2.8135 1.64047 2.79046C1.64767 2.76742 1.66165 2.74709 1.68059 2.73212C1.69953 2.71715 1.72254 2.70824 1.74662 2.70655L2.75995 2.65322C2.79995 2.65322 2.85328 2.62655 2.86662 2.57322L3.22662 1.63988V1.62655ZM3.22662 5.62655C3.23671 5.60696 3.25201 5.59053 3.27082 5.57906C3.28964 5.56759 3.31125 5.56152 3.33328 5.56152C3.35532 5.56152 3.37693 5.56759 3.39575 5.57906C3.41456 5.59053 3.42985 5.60696 3.43995 5.62655L3.79995 6.57322C3.81328 6.62655 3.86662 6.65322 3.90662 6.65322L4.91995 6.70655C5.02662 6.70655 5.06662 6.83988 4.98662 6.91988L4.18662 7.54655C4.16921 7.56347 4.15734 7.58527 4.15258 7.60907C4.14782 7.63288 4.15039 7.65757 4.15995 7.67988L4.42662 8.63988C4.43474 8.66423 4.43483 8.69054 4.4269 8.71495C4.41896 8.73935 4.40341 8.76057 4.38253 8.77549C4.36164 8.79041 4.33653 8.79824 4.31086 8.79783C4.2852 8.79742 4.26035 8.78879 4.23995 8.77322L3.39995 8.22655C3.38022 8.21336 3.35702 8.20633 3.33328 8.20633C3.30955 8.20633 3.28635 8.21336 3.26662 8.22655L2.42662 8.77322C2.40622 8.78879 2.38136 8.79742 2.3557 8.79783C2.33004 8.79824 2.30492 8.79041 2.28404 8.77549C2.26315 8.76057 2.2476 8.73935 2.23967 8.71495C2.23173 8.69054 2.23183 8.66423 2.23995 8.63988L2.50662 7.66655C2.51464 7.64292 2.5151 7.61739 2.50793 7.59349C2.50076 7.56959 2.48632 7.54852 2.46662 7.53322L1.67995 6.91988C1.66112 6.90478 1.64727 6.88436 1.64023 6.86127C1.63319 6.83818 1.63327 6.8135 1.64047 6.79046C1.64767 6.76742 1.66165 6.74709 1.68059 6.73212C1.69953 6.71715 1.72254 6.70824 1.74662 6.70655L2.75995 6.65322C2.79995 6.65322 2.85328 6.62655 2.86662 6.57322L3.22662 5.63988V5.62655ZM3.22662 9.62655C3.23671 9.60696 3.25201 9.59053 3.27082 9.57906C3.28964 9.56759 3.31125 9.56152 3.33328 9.56152C3.35532 9.56152 3.37693 9.56759 3.39575 9.57906C3.41456 9.59053 3.42985 9.60696 3.43995 9.62655L3.79995 10.5732C3.81328 10.6265 3.86662 10.6532 3.90662 10.6532L4.91995 10.7065C5.02662 10.7065 5.06662 10.8399 4.98662 10.9199L4.18662 11.5465C4.16921 11.5635 4.15734 11.5853 4.15258 11.6091C4.14782 11.6329 4.15039 11.6576 4.15995 11.6799L4.42662 12.6399C4.43474 12.6642 4.43483 12.6905 4.4269 12.7149C4.41896 12.7394 4.40341 12.7606 4.38253 12.7755C4.36164 12.7904 4.33653 12.7982 4.31086 12.7978C4.2852 12.7974 4.26035 12.7888 4.23995 12.7732L3.39995 12.2265C3.38022 12.2134 3.35702 12.2063 3.33328 12.2063C3.30955 12.2063 3.28635 12.2134 3.26662 12.2265L2.42662 12.7732C2.40622 12.7888 2.38136 12.7974 2.3557 12.7978C2.33004 12.7982 2.30492 12.7904 2.28404 12.7755C2.26315 12.7606 2.2476 12.7394 2.23967 12.7149C2.23173 12.6905 2.23183 12.6642 2.23995 12.6399L2.50662 11.6665C2.51464 11.6429 2.5151 11.6174 2.50793 11.5935C2.50076 11.5696 2.48632 11.5485 2.46662 11.5332L1.67995 10.9199C1.66112 10.9048 1.64727 10.8844 1.64023 10.8613C1.63319 10.8382 1.63327 10.8135 1.64047 10.7905C1.64767 10.7674 1.66165 10.7471 1.68059 10.7321C1.69953 10.7171 1.72254 10.7082 1.74662 10.7065L2.75995 10.6532C2.79995 10.6532 2.85328 10.6265 2.86662 10.5732L3.22662 9.63988V9.62655ZM7.22662 1.62655C7.23671 1.60696 7.25201 1.59053 7.27082 1.57906C7.28964 1.56759 7.31125 1.56152 7.33328 1.56152C7.35532 1.56152 7.37693 1.56759 7.39575 1.57906C7.41456 1.59053 7.42986 1.60696 7.43995 1.62655L7.79995 2.57322C7.81328 2.62655 7.86662 2.65322 7.90662 2.65322L8.91995 2.70655C9.02662 2.70655 9.06662 2.83988 8.98662 2.91988L8.18662 3.54655C8.16921 3.56347 8.15734 3.58527 8.15258 3.60907C8.14782 3.63288 8.15039 3.65757 8.15995 3.67988L8.42662 4.63988C8.43474 4.66423 8.43483 4.69054 8.4269 4.71495C8.41896 4.73935 8.40341 4.76057 8.38253 4.77549C8.36164 4.79041 8.33653 4.79824 8.31086 4.79783C8.2852 4.79742 8.26035 4.78879 8.23995 4.77322L7.39995 4.22655C7.38022 4.21336 7.35702 4.20633 7.33328 4.20633C7.30955 4.20633 7.28635 4.21336 7.26662 4.22655L6.42662 4.77322C6.40622 4.78879 6.38136 4.79742 6.3557 4.79783C6.33004 4.79824 6.30492 4.79041 6.28404 4.77549C6.26315 4.76057 6.2476 4.73935 6.23967 4.71495C6.23173 4.69054 6.23183 4.66423 6.23995 4.63988L6.50662 3.66655C6.51464 3.64292 6.5151 3.61739 6.50793 3.59349C6.50076 3.56959 6.48632 3.54852 6.46662 3.53322L5.67995 2.91988C5.66112 2.90478 5.64727 2.88436 5.64023 2.86127C5.63319 2.83818 5.63327 2.8135 5.64047 2.79046C5.64767 2.76742 5.66165 2.74709 5.68059 2.73212C5.69953 2.71715 5.72254 2.70824 5.74662 2.70655L6.75995 2.65322C6.79995 2.65322 6.85328 2.62655 6.86662 2.57322L7.22662 1.63988V1.62655ZM7.22662 5.62655C7.23671 5.60696 7.25201 5.59053 7.27082 5.57906C7.28964 5.56759 7.31125 5.56152 7.33328 5.56152C7.35532 5.56152 7.37693 5.56759 7.39575 5.57906C7.41456 5.59053 7.42986 5.60696 7.43995 5.62655L7.79995 6.57322C7.81328 6.62655 7.86662 6.65322 7.90662 6.65322L8.91995 6.70655C9.02662 6.70655 9.06662 6.83988 8.98662 6.91988L8.18662 7.54655C8.16921 7.56347 8.15734 7.58527 8.15258 7.60907C8.14782 7.63288 8.15039 7.65757 8.15995 7.67988L8.42662 8.63988C8.43474 8.66423 8.43483 8.69054 8.4269 8.71495C8.41896 8.73935 8.40341 8.76057 8.38253 8.77549C8.36164 8.79041 8.33653 8.79824 8.31086 8.79783C8.2852 8.79742 8.26035 8.78879 8.23995 8.77322L7.39995 8.22655C7.38022 8.21336 7.35702 8.20633 7.33328 8.20633C7.30955 8.20633 7.28635 8.21336 7.26662 8.22655L6.42662 8.77322C6.40622 8.78879 6.38136 8.79742 6.3557 8.79783C6.33004 8.79824 6.30492 8.79041 6.28404 8.77549C6.26315 8.76057 6.2476 8.73935 6.23967 8.71495C6.23173 8.69054 6.23183 8.66423 6.23995 8.63988L6.50662 7.66655C6.51464 7.64292 6.5151 7.61739 6.50793 7.59349C6.50076 7.56959 6.48632 7.54852 6.46662 7.53322L5.67995 6.91988C5.66112 6.90478 5.64727 6.88436 5.64023 6.86127C5.63319 6.83818 5.63327 6.8135 5.64047 6.79046C5.64767 6.76742 5.66165 6.74709 5.68059 6.73212C5.69953 6.71715 5.72254 6.70824 5.74662 6.70655L6.75995 6.65322C6.79995 6.65322 6.85328 6.62655 6.86662 6.57322L7.22662 5.63988V5.62655ZM7.22662 9.62655C7.23671 9.60696 7.25201 9.59053 7.27082 9.57906C7.28964 9.56759 7.31125 9.56152 7.33328 9.56152C7.35532 9.56152 7.37693 9.56759 7.39575 9.57906C7.41456 9.59053 7.42986 9.60696 7.43995 9.62655L7.79995 10.5732C7.81328 10.6265 7.86662 10.6532 7.90662 10.6532L8.91995 10.7065C9.02662 10.7065 9.06662 10.8399 8.98662 10.9199L8.18662 11.5465C8.16921 11.5635 8.15734 11.5853 8.15258 11.6091C8.14782 11.6329 8.15039 11.6576 8.15995 11.6799L8.42662 12.6399C8.43474 12.6642 8.43483 12.6905 8.4269 12.7149C8.41896 12.7394 8.40341 12.7606 8.38253 12.7755C8.36164 12.7904 8.33653 12.7982 8.31086 12.7978C8.2852 12.7974 8.26035 12.7888 8.23995 12.7732L7.39995 12.2265C7.38022 12.2134 7.35702 12.2063 7.33328 12.2063C7.30955 12.2063 7.28635 12.2134 7.26662 12.2265L6.42662 12.7732C6.40622 12.7888 6.38136 12.7974 6.3557 12.7978C6.33004 12.7982 6.30492 12.7904 6.28404 12.7755C6.26315 12.7606 6.2476 12.7394 6.23967 12.7149C6.23173 12.6905 6.23183 12.6642 6.23995 12.6399L6.50662 11.6665C6.51464 11.6429 6.5151 11.6174 6.50793 11.5935C6.50076 11.5696 6.48632 11.5485 6.46662 11.5332L5.67995 10.9199C5.66112 10.9048 5.64727 10.8844 5.64023 10.8613C5.63319 10.8382 5.63327 10.8135 5.64047 10.7905C5.64767 10.7674 5.66165 10.7471 5.68059 10.7321C5.69953 10.7171 5.72254 10.7082 5.74662 10.7065L6.75995 10.6532C6.79995 10.6532 6.85328 10.6265 6.86662 10.5732L7.22662 9.63988V9.62655ZM11.2266 1.62655C11.2367 1.60696 11.252 1.59053 11.2708 1.57906C11.2896 1.56759 11.3112 1.56152 11.3333 1.56152C11.3553 1.56152 11.3769 1.56759 11.3957 1.57906C11.4146 1.59053 11.4299 1.60696 11.44 1.62655L11.8 2.57322C11.8133 2.62655 11.8666 2.65322 11.9066 2.65322L12.92 2.70655C13.0266 2.70655 13.0666 2.83988 12.9866 2.91988L12.1866 3.54655C12.1692 3.56347 12.1573 3.58527 12.1526 3.60907C12.1478 3.63288 12.1504 3.65757 12.16 3.67988L12.4266 4.63988C12.4347 4.66423 12.4348 4.69054 12.4269 4.71495C12.419 4.73935 12.4034 4.76057 12.3825 4.77549C12.3616 4.79041 12.3365 4.79824 12.3109 4.79783C12.2852 4.79742 12.2603 4.78879 12.24 4.77322L11.4 4.22655C11.3802 4.21336 11.357 4.20633 11.3333 4.20633C11.3096 4.20633 11.2864 4.21336 11.2666 4.22655L10.4266 4.77322C10.4062 4.78879 10.3814 4.79742 10.3557 4.79783C10.33 4.79824 10.3049 4.79041 10.284 4.77549C10.2632 4.76057 10.2476 4.73935 10.2397 4.71495C10.2317 4.69054 10.2318 4.66423 10.24 4.63988L10.5066 3.66655C10.5146 3.64292 10.5151 3.61739 10.5079 3.59349C10.5008 3.56959 10.4863 3.54852 10.4666 3.53322L9.67995 2.91988C9.66112 2.90478 9.64727 2.88436 9.64023 2.86127C9.63319 2.83818 9.63327 2.8135 9.64047 2.79046C9.64767 2.76742 9.66165 2.74709 9.68059 2.73212C9.69953 2.71715 9.72254 2.70824 9.74662 2.70655L10.76 2.65322C10.8 2.65322 10.8533 2.62655 10.8666 2.57322L11.2266 1.63988V1.62655ZM11.2266 5.62655C11.2367 5.60696 11.252 5.59053 11.2708 5.57906C11.2896 5.56759 11.3112 5.56152 11.3333 5.56152C11.3553 5.56152 11.3769 5.56759 11.3957 5.57906C11.4146 5.59053 11.4299 5.60696 11.44 5.62655L11.8 6.57322C11.8133 6.62655 11.8666 6.65322 11.9066 6.65322L12.92 6.70655C13.0266 6.70655 13.0666 6.83988 12.9866 6.91988L12.1866 7.54655C12.1692 7.56347 12.1573 7.58527 12.1526 7.60907C12.1478 7.63288 12.1504 7.65757 12.16 7.67988L12.4266 8.63988C12.4347 8.66423 12.4348 8.69054 12.4269 8.71495C12.419 8.73935 12.4034 8.76057 12.3825 8.77549C12.3616 8.79041 12.3365 8.79824 12.3109 8.79783C12.2852 8.79742 12.2603 8.78879 12.24 8.77322L11.4 8.22655C11.3802 8.21336 11.357 8.20633 11.3333 8.20633C11.3096 8.20633 11.2864 8.21336 11.2666 8.22655L10.4266 8.77322C10.4062 8.78879 10.3814 8.79742 10.3557 8.79783C10.33 8.79824 10.3049 8.79041 10.284 8.77549C10.2632 8.76057 10.2476 8.73935 10.2397 8.71495C10.2317 8.69054 10.2318 8.66423 10.24 8.63988L10.5066 7.66655C10.5146 7.64292 10.5151 7.61739 10.5079 7.59349C10.5008 7.56959 10.4863 7.54852 10.4666 7.53322L9.67995 6.91988C9.66112 6.90478 9.64727 6.88436 9.64023 6.86127C9.63319 6.83818 9.63327 6.8135 9.64047 6.79046C9.64767 6.76742 9.66165 6.74709 9.68059 6.73212C9.69953 6.71715 9.72254 6.70824 9.74662 6.70655L10.76 6.65322C10.8 6.65322 10.8533 6.62655 10.8666 6.57322L11.2266 5.63988V5.62655ZM11.2266 9.62655C11.2367 9.60696 11.252 9.59053 11.2708 9.57906C11.2896 9.56759 11.3112 9.56152 11.3333 9.56152C11.3553 9.56152 11.3769 9.56759 11.3957 9.57906C11.4146 9.59053 11.4299 9.60696 11.44 9.62655L11.8 10.5732C11.8133 10.6265 11.8666 10.6532 11.9066 10.6532L12.92 10.7065C13.0266 10.7065 13.0666 10.8399 12.9866 10.9199L12.1866 11.5465C12.1692 11.5635 12.1573 11.5853 12.1526 11.6091C12.1478 11.6329 12.1504 11.6576 12.16 11.6799L12.4266 12.6399C12.4347 12.6642 12.4348 12.6905 12.4269 12.7149C12.419 12.7394 12.4034 12.7606 12.3825 12.7755C12.3616 12.7904 12.3365 12.7982 12.3109 12.7978C12.2852 12.7974 12.2603 12.7888 12.24 12.7732L11.4 12.2265C11.3802 12.2134 11.357 12.2063 11.3333 12.2063C11.3096 12.2063 11.2864 12.2134 11.2666 12.2265L10.4266 12.7732C10.4062 12.7888 10.3814 12.7974 10.3557 12.7978C10.33 12.7982 10.3049 12.7904 10.284 12.7755C10.2632 12.7606 10.2476 12.7394 10.2397 12.7149C10.2317 12.6905 10.2318 12.6642 10.24 12.6399L10.5066 11.6665C10.5146 11.6429 10.5151 11.6174 10.5079 11.5935C10.5008 11.5696 10.4863 11.5485 10.4666 11.5332L9.67995 10.9199C9.66112 10.9048 9.64727 10.8844 9.64023 10.8613C9.63319 10.8382 9.63327 10.8135 9.64047 10.7905C9.64767 10.7674 9.66165 10.7471 9.68059 10.7321C9.69953 10.7171 9.72254 10.7082 9.74662 10.7065L10.76 10.6532C10.8 10.6532 10.8533 10.6265 10.8666 10.5732L11.2266 9.63988V9.62655Z" fill="#F8F9FD"/>
</g>
</g>
<defs>
<clipPath id="clip0_1693_895">
<rect width="24" height="24" fill="white"/>
</clipPath>
</defs>
</svg>
