<svg width="44" height="32" viewBox="0 0 44 32" fill="none" xmlns="http://www.w3.org/2000/svg">
<path d="M26.0536 1.97255C33.9924 1.97255 40.4281 8.25283 40.4281 16C40.4281 23.7471 33.9924 30.0273 26.0536 30.0273C18.1149 30.0273 1.51776e-06 19.726 1.83947e-06 15.9999C2.16118e-06 12.2739 18.1149 1.97255 26.0536 1.97255Z" fill="url(#paint0_linear_1128_453)"/>
<path d="M34.9255 26.0817L34.9256 5.91844C32.3388 3.47579 28.8147 1.97266 24.9308 1.97266C22.7977 1.97266 19.93 2.88252 16.8764 4.24093C15.4319 4.48771 12.5475 5.28421 10.4215 5.92937C9.64458 6.16516 9.6081 7.17673 10.3561 7.48924C12.4455 8.36219 14.6682 9.30205 16.1379 9.92526C16.8222 10.2154 16.8651 11.1414 16.208 11.4864C14.6544 12.302 12.2148 13.5664 9.99276 14.6482C8.95423 15.1538 8.95423 16.6614 9.99276 17.167C12.2831 18.282 14.8046 19.591 16.3487 20.4027C16.9787 20.7339 16.9706 21.6078 16.3332 21.9251C14.9272 22.6251 12.7184 23.7008 10.595 24.6353C9.85142 24.9626 9.88475 25.9834 10.665 26.2157C12.7467 26.8355 15.4969 27.5567 16.9051 27.7719C19.948 29.1233 22.8044 30.0275 24.9308 30.0275C28.8147 30.0275 32.3388 28.5243 34.9255 26.0817Z" fill="url(#paint1_linear_1128_453)"/>
<path d="M26.0859 4.16471C32.8288 4.16471 38.2949 9.46369 38.2949 16.0003C38.2949 22.537 32.8288 27.8359 26.0859 27.8359C25.1061 27.8359 21.6791 26.9541 19.2002 26.216C18.4199 25.9837 18.3829 24.955 19.122 24.6181C21.4522 23.5559 24.1849 22.1623 26.0274 21.2016C26.761 20.8192 26.6069 19.7555 25.7956 19.5767C23.0223 18.9655 18.3691 17.894 15.0503 16.8915C13.9416 16.5565 13.9416 15.2592 15.0503 14.9243C18.285 13.9471 22.7873 12.9045 25.5811 12.2863C26.4166 12.1015 26.5486 10.987 25.7746 10.6287C23.8764 9.74991 21.1635 8.50654 18.8823 7.50931C18.1398 7.1847 18.1798 6.16542 18.9567 5.92964C21.506 5.15598 25.1461 4.16471 26.0859 4.16471Z" fill="url(#paint2_linear_1128_453)"/>
<path d="M27.6553 0C36.6824 3.85062e-07 44.0004 7.16345 44.0004 16C44.0004 24.8365 36.6824 32 27.6553 32C26.5875 32 23.5843 31.7989 21.1909 31.4416C20.3492 31.3159 20.3017 30.3402 21.0997 30.0503C23.4412 29.1997 25.8094 28.2809 27.1949 27.7361C27.5933 27.5794 27.5606 27.0099 27.1495 26.8888C26.3898 26.6651 25.2904 26.3305 23.8534 25.8664C23.2441 25.6695 23.2363 24.8182 23.8356 24.5941C26.6874 23.5279 30.464 21.9498 32.9618 20.8873C33.7707 20.5432 33.6363 19.3878 32.77 19.2237C30.3016 18.7562 29.6331 18.0375 26.4597 17.3195C24.7924 16.9422 24.7924 15.0578 26.4597 14.6805C29.6331 13.9625 30.3016 13.2438 32.77 12.7763C33.6363 12.6122 33.7707 11.4568 32.9618 11.1127C30.464 10.0502 26.6874 8.47209 23.8356 7.40592C23.2363 7.18184 23.2441 6.33048 23.8534 6.13365C25.2904 5.66946 26.3898 5.3349 27.1495 5.11116C27.5606 4.99008 27.5933 4.42055 27.1949 4.26391C25.8094 3.71906 23.4412 2.80028 21.0997 1.94973C20.3017 1.65985 20.3492 0.684111 21.1909 0.558444C23.5843 0.201102 26.5875 -4.55461e-08 27.6553 0Z" fill="#CAF5FF"/>
<defs>
<linearGradient id="paint0_linear_1128_453" x1="1.83947e-06" y1="15.9999" x2="40.4281" y2="16" gradientUnits="userSpaceOnUse">
<stop stop-color="#83BAC7"/>
<stop offset="1" stop-color="#2F4A54" stop-opacity="0"/>
</linearGradient>
<linearGradient id="paint1_linear_1128_453" x1="9" y1="15.5" x2="33.5" y2="15" gradientUnits="userSpaceOnUse">
<stop stop-color="#83BAC7"/>
<stop offset="1" stop-color="#2F4A54" stop-opacity="0"/>
</linearGradient>
<linearGradient id="paint2_linear_1128_453" x1="14.5" y1="16.5" x2="32" y2="16" gradientUnits="userSpaceOnUse">
<stop stop-color="#83BAC7"/>
<stop offset="1" stop-color="#2F4A54" stop-opacity="0"/>
</linearGradient>
</defs>
</svg>
