<svg width="48" height="48" viewBox="0 0 48 48" fill="none" xmlns="http://www.w3.org/2000/svg">
<path d="M15.782 9.328L8.21802 20.672" stroke="#797989" stroke-width="2" stroke-linecap="round" stroke-linejoin="round"/>
<path d="M38.308 14.462L21.694 7.53796" stroke="#797989" stroke-width="2" stroke-linecap="round" stroke-linejoin="round"/>
<path d="M39.054 18.7L20.946 35.2999" stroke="#797989" stroke-width="2" stroke-linecap="round" stroke-linejoin="round"/>
<path d="M41.392 19.95L38.608 38.0519" stroke="#797989" stroke-width="2" stroke-linecap="round" stroke-linejoin="round"/>
<path d="M10 23.1119L38 16.8879" stroke="#797989" stroke-width="2" stroke-linecap="round" stroke-linejoin="round"/>
<path d="M6 28C8.20914 28 10 26.2091 10 24C10 21.7909 8.20914 20 6 20C3.79086 20 2 21.7909 2 24C2 26.2091 3.79086 28 6 28Z" stroke="#797989" stroke-width="2" stroke-linecap="round" stroke-linejoin="round"/>
<path d="M42 20C44.2091 20 46 18.2091 46 16C46 13.7909 44.2091 12 42 12C39.7909 12 38 13.7909 38 16C38 18.2091 39.7909 20 42 20Z" stroke="#797989" stroke-width="2" stroke-linecap="round" stroke-linejoin="round"/>
<path d="M18 10C20.2091 10 22 8.20914 22 6C22 3.79086 20.2091 2 18 2C15.7909 2 14 3.79086 14 6C14 8.20914 15.7909 10 18 10Z" stroke="#797989" stroke-width="2" stroke-linecap="round" stroke-linejoin="round"/>
<path d="M18 42C20.2091 42 22 40.2091 22 38C22 35.7909 20.2091 34 18 34C15.7909 34 14 35.7909 14 38C14 40.2091 15.7909 42 18 42Z" stroke="#797989" stroke-width="2" stroke-linecap="round" stroke-linejoin="round"/>
<path d="M38 46C40.2091 46 42 44.2091 42 42C42 39.7909 40.2091 38 38 38C35.7909 38 34 39.7909 34 42C34 44.2091 35.7909 46 38 46Z" stroke="#797989" stroke-width="2" stroke-linecap="round" stroke-linejoin="round"/>
</svg>
