<svg width="48" height="48" viewBox="0 0 48 48" fill="#FF5757" xmlns="http://www.w3.org/2000/svg">
    <g clip-path="url(#clip0)">
        <rect x="1.026" y="-75.9489" width="8" height="155" transform="rotate(41.5482 1.026 -75.9489)"/>
        <rect x="10.0068" y="-67.99" width="8" height="155" transform="rotate(41.5482 10.0068 -67.99)"/>
        <rect x="18.9875" y="-60.0309" width="8" height="155" transform="rotate(41.5482 18.9875 -60.0309)"/>
        <rect x="27.9683" y="-52.072" width="8" height="155" transform="rotate(41.5482 27.9683 -52.072)"/>
        <rect x="36.9492" y="-44.1129" width="8" height="155" transform="rotate(41.5482 36.9492 -44.1129)"/>
        <rect x="45.9299" y="-36.154" width="8" height="155" transform="rotate(41.5482 45.9299 -36.154)"/>
        <rect x="54.9106" y="-28.195" width="8" height="155" transform="rotate(41.5482 54.9106 -28.195)"/>
        <rect x="63.8915" y="-20.236" width="8" height="155" transform="rotate(41.5482 63.8915 -20.236)"/>
        <rect x="72.8723" y="-12.277" width="8" height="155" transform="rotate(41.5482 72.8723 -12.277)"/>
        <rect x="81.853" y="-4.31796" width="8" height="155" transform="rotate(41.5482 81.853 -4.31796)"/>
        <rect x="90.8338" y="3.64098" width="8" height="155" transform="rotate(41.5482 90.8338 3.64098)"/>
    </g>
    <defs>
        <clipPath id="clip0">
            <rect width="48" height="48" fill="white"/>
        </clipPath>
    </defs>
</svg>
