<svg width="77" height="49" viewBox="0 0 77 49" fill="none" xmlns="http://www.w3.org/2000/svg">
<path d="M15.7321 45.2635C22.5843 45.2635 28.1391 39.7087 28.1391 32.8564C28.1391 26.0042 22.5843 20.4494 15.7321 20.4494C8.87984 20.4494 3.32501 26.0042 3.32501 32.8564C3.32501 39.7087 8.87984 45.2635 15.7321 45.2635Z" fill="#444444"/>
<path d="M61.1688 45.2635C68.021 45.2635 73.5759 39.7087 73.5759 32.8564C73.5759 26.0042 68.021 20.4494 61.1688 20.4494C54.3166 20.4494 48.7617 26.0042 48.7617 32.8564C48.7617 39.7087 54.3166 45.2635 61.1688 45.2635Z" fill="#DDDDDD"/>
<mask id="mask0_0_463" style="mask-type:alpha" maskUnits="userSpaceOnUse" x="7" y="3" width="62" height="32">
<path d="M68.8809 3.85001H7.85159V34.1971H68.8809V3.85001Z" fill="#C4C4C4"/>
</mask>
<g mask="url(#mask0_0_463)">
<mask id="mask1_0_463" style="mask-type:alpha" maskUnits="userSpaceOnUse" x="8" y="4" width="61" height="85">
<path fill-rule="evenodd" clip-rule="evenodd" d="M38.377 4.31157C21.6293 4.31157 8.05255 17.4892 8.05255 33.7446V88.2058H23.2592V35.1509C23.2592 27.0471 30.0275 20.4778 38.3766 20.4778C46.7259 20.4778 53.4942 27.0471 53.4942 35.1509V88.2058H68.7013V33.7446C68.7013 17.4891 55.1246 4.31157 38.377 4.31157Z" fill="#E9BCFF"/>
</mask>
<g mask="url(#mask1_0_463)">
<path d="M8.05322 34.636C8.05322 17.8883 21.63 4.31157 38.3776 4.31157C55.1253 4.31157 68.702 17.8883 68.702 34.636V88.2058H8.05322V34.636Z" fill="#E9BCFF"/>
<path d="M11.4928 35.1013C11.4928 20.2311 23.5475 8.17624 38.4179 8.17624C53.2884 8.17624 65.3431 20.2311 65.3431 35.1013V93.5757H11.4928V35.1013Z" fill="#2C98F3"/>
<path d="M15.0295 35.0317C15.0295 22.3351 25.3222 12.0424 38.0188 12.0424C50.7154 12.0424 61.008 22.3351 61.008 35.0317V102.186H15.0295V35.0317Z" fill="#58C971"/>
<path d="M19.3237 35.4893C19.3237 24.9664 27.854 16.4359 38.377 16.4359C48.8999 16.4359 57.4304 24.9664 57.4304 35.4893V112.906H19.3237V35.4893Z" fill="#FFCA42"/>
</g>
</g>
</svg>
