<svg width="36" height="35" viewBox="0 0 36 35" fill="none" xmlns="http://www.w3.org/2000/svg">
<path fill-rule="evenodd" clip-rule="evenodd" d="M17.7239 34.7753C27.5125 34.7753 35.4478 26.9906 35.4478 17.3876C35.4478 7.78471 27.5125 0 17.7239 0C7.93525 0 0 7.78471 0 17.3876C0 26.9906 7.93525 34.7753 17.7239 34.7753ZM14.4966 6.76735C14.3433 6.55443 14.2411 6.36656 14.2603 6.34151L14.2673 6.33452C14.2747 6.32703 14.2807 6.3209 14.2879 6.31671C14.3203 6.29786 14.3757 6.31854 14.6807 6.43238L14.7392 6.45423C16.7572 7.19946 18.0918 8.52709 18.6282 10.3432C18.839 11.0509 18.839 12.153 18.6282 12.7918C18.36 13.6372 17.8172 14.4012 16.6167 15.6663C14.6881 17.6953 14.0751 18.572 13.6792 19.8871C13.4365 20.6887 13.5961 21.9725 14.0432 22.7929C14.3305 23.3252 14.222 23.3503 13.5387 22.9119C12.0188 21.9287 11.0673 20.7701 10.665 19.3924C10.4862 18.7724 10.499 17.4448 10.6906 16.8561C10.9843 15.9731 11.3866 15.397 12.7085 13.9879C14.5093 12.0654 14.8478 11.5894 15.1735 10.5499C15.365 9.9424 15.3587 8.80264 15.1671 8.13256C15.0074 7.55642 14.8669 7.27461 14.4966 6.76735ZM19.7075 9.73576C19.7075 9.76707 19.7649 9.90485 19.8352 10.0489C20.2247 10.8379 20.4354 11.7397 20.4291 12.5664C20.4163 13.9566 19.8543 15.0212 18.2642 16.6808C16.1633 18.8852 15.6077 19.7181 15.4225 20.9706C15.2437 22.1542 15.6971 23.4755 16.7636 24.9034C17.3447 25.6862 18.3536 26.6318 18.475 26.5128C18.4941 26.494 18.3792 26.2999 18.2195 26.0807C17.6193 25.2415 17.4468 24.7092 17.4468 23.6509C17.4532 22.9244 17.466 22.8305 17.6512 22.3671C17.9194 21.7033 18.2706 21.2398 19.1072 20.4508C19.3793 20.1973 19.7512 19.8459 20.0606 19.5536L20.0607 19.5535C20.1869 19.4342 20.3028 19.3248 20.3971 19.2359C21.1124 18.5658 21.47 18.1211 21.8084 17.5012C22.5747 16.0859 22.5492 14.5766 21.719 12.6916C21.1571 11.4078 20.4227 10.1804 20.0204 9.84849C19.8224 9.68566 19.7075 9.64183 19.7075 9.73576ZM24.1137 15.7539C24.1137 15.5911 24.1393 15.3845 24.1776 15.2968C24.2095 15.2091 24.2478 15.134 24.267 15.134C24.3245 15.134 24.5671 15.6037 24.6948 15.9418C25.0077 16.8186 25.0971 17.3196 25.0971 18.3278C25.1035 19.4175 25.0077 19.8496 24.5799 20.6449C24.2989 21.1647 24.0946 21.4089 22.9643 22.5612C21.9872 23.5569 21.6104 24.0016 21.3486 24.465C21.1443 24.8282 20.9846 25.3605 20.9846 25.6736C20.9846 25.9742 21.1507 26.6255 21.2912 26.876C21.4827 27.2142 21.9936 27.8216 22.2682 28.0408C22.4215 28.1598 22.6258 28.3289 22.7344 28.4228C23.0537 28.7046 22.7727 28.6483 21.9617 28.2537C19.9246 27.2705 18.839 25.7676 18.9603 24.1018C18.9986 23.5945 19.1263 23.225 19.4329 22.7052C19.7074 22.2418 19.931 21.9851 21.0293 20.8641C22.1213 19.7619 22.5556 19.2484 23.0537 18.4969C23.705 17.5262 24.1137 16.4616 24.1137 15.7539Z" fill="white"/>
</svg>
